<?xml version="1.0" encoding="utf-8"?>
<!-- Generator: Adobe Illustrator 22.0.1, SVG Export Plug-In . SVG Version: 6.00 Build 0)  -->
<svg version="1.1" id="Camada_1" xmlns="http://www.w3.org/2000/svg" xmlns:xlink="http://www.w3.org/1999/xlink" x="0px" y="0px"
	 width="40px" height="33.9px" viewBox="0 0 40 33.9" style="enable-background:new 0 0 40 33.9;" xml:space="preserve">
<style type="text/css">
	.st0{fill:#FFFFFF;}
</style>
<g>
	<path class="st0" d="M32.5,3.5l-0.4-3c0-0.2-0.1-0.3-0.2-0.4C31.7,0,31.6,0,31.4,0l-3.3,0.5c-0.3,0-0.5,0.3-0.5,0.6
		c0,0.3,0.3,0.5,0.7,0.5l1.9-0.3c-2.6,3.2-5.3,5.9-8.2,8.1c-2.5,1.9-5.2,3.4-7.8,4.4c-4.5,1.8-7.6,1.7-7.6,1.7
		c-0.3,0-0.6,0.2-0.6,0.5c0,0.3,0.2,0.6,0.5,0.6c0,0,0.1,0,0.2,0c0.8,0,3.7-0.1,7.8-1.7c2.8-1.1,5.5-2.6,8.1-4.6
		c3-2.2,5.9-5,8.5-8.3l0.2,1.6c0,0.3,0.3,0.5,0.6,0.5c0,0,0.1,0,0.1,0C32.3,4.1,32.6,3.8,32.5,3.5L32.5,3.5z M32.5,3.5"/>
	<path class="st0" d="M38.9,30.8h-4.6c0.4-0.3,0.7-0.5,1.1-0.9c1.3-1.3,2-3,2-4.9c0-1.8-0.7-3.6-2-4.9c-0.5-0.5-1-0.8-1.5-1.1v-2.3
		c0-0.3-0.3-0.6-0.6-0.6c-0.3,0-0.6,0.3-0.6,0.6v1.8C31.2,18,29.5,18,28,18.6v-7c0-0.1,0.1-0.1,0.1-0.1h4.5c0.1,0,0.1,0.1,0.1,0.1
		v1.4c0,0.3,0.3,0.6,0.6,0.6c0.3,0,0.6-0.3,0.6-0.6v-1.4c0-0.7-0.6-1.3-1.3-1.3h-4.5c-0.7,0-1.3,0.6-1.3,1.3v7.6
		c-0.4,0.3-0.8,0.6-1.1,0.9c-1.3,1.3-2,3-2,4.9c0,1.8,0.7,3.6,2,4.9c0.3,0.3,0.7,0.6,1.1,0.9h-3.6V16.8c0-0.7-0.6-1.3-1.3-1.3h-4.5
		c-0.7,0-1.3,0.6-1.3,1.3v13.9h-3.7v-9.2c0-0.7-0.6-1.3-1.3-1.3H6.6c-0.7,0-1.3,0.6-1.3,1.3v9.2H3V1.4C3,0.9,2.5,0.4,2,0.4H1.1
		C0.5,0.4,0,0.9,0,1.4v4c0,0.3,0.3,0.6,0.6,0.6c0.3,0,0.6-0.3,0.6-0.6v-4h0.7v29.3c0,0.6,0.5,1.1,1.1,1.1h35.9v0.9H1.1V9.1
		c0-0.3-0.3-0.6-0.6-0.6C0.3,8.5,0,8.8,0,9.1v23.8c0,0.6,0.5,1.1,1.1,1.1h37.9c0.6,0,1.1-0.5,1.1-1.1v-1
		C40,31.2,39.5,30.8,38.9,30.8L38.9,30.8z M11.3,30.8H6.5v-9.2c0-0.1,0.1-0.1,0.1-0.1h4.5c0.1,0,0.1,0.1,0.1,0.1V30.8z M17.2,30.8
		V16.8c0-0.1,0.1-0.1,0.1-0.1h4.5c0.1,0,0.1,0.1,0.1,0.1v13.9H17.2z M33.1,30.2c-0.6,0.3-1.2,0.5-1.8,0.5c0,0,0,0,0,0
		c0,0-0.1,0-0.1,0c-0.1,0-0.1,0-0.2,0c0,0,0,0-0.1,0c-0.1,0-0.2,0-0.2,0c-0.1,0-0.2,0-0.2,0c0,0-0.1,0-0.1,0c-0.1,0-0.1,0-0.2,0
		c-0.1,0-0.1,0-0.2,0c0,0-0.1,0-0.1,0c-0.1,0-0.1,0-0.2,0c0,0,0,0,0,0c-0.7-0.1-1.3-0.3-1.9-0.7c0,0,0,0,0,0
		c-0.4-0.2-0.8-0.6-1.2-0.9c-1.1-1.1-1.7-2.5-1.7-4.1c0-1.5,0.6-3,1.7-4.1c0.4-0.4,0.9-0.8,1.4-1c0,0,0,0,0,0
		c0.8-0.4,1.7-0.6,2.6-0.6c0.7,0,1.5,0.1,2.1,0.4c0,0,0,0,0,0c0.1,0,0.1,0.1,0.2,0.1c0,0,0.1,0,0.1,0c0.6,0.3,1.1,0.6,1.6,1.1
		c2.2,2.2,2.2,5.9,0,8.1C34.2,29.5,33.6,29.9,33.1,30.2C33.1,30.2,33.1,30.2,33.1,30.2L33.1,30.2z M33.1,30.2"/>
	<path class="st0" d="M30.8,24.5v-2c0.7,0,1,0.4,1.2,0.4c0.3,0,0.4-0.4,0.4-0.6c0-0.5-1-0.7-1.6-0.7v-0.3c0-0.1-0.2-0.2-0.3-0.2
		c-0.2,0-0.3,0.1-0.3,0.2v0.3c-1,0.1-1.9,0.6-1.9,1.9c0,1.3,1,1.6,1.9,2v2.4c-1-0.1-1.3-0.8-1.6-0.8c-0.3,0-0.5,0.3-0.5,0.6
		c0,0.5,0.8,1.2,2.1,1.2V29c0,0.1,0.1,0.2,0.3,0.2c0.1,0,0.3-0.1,0.3-0.2v-0.3c1.1-0.2,1.8-0.8,1.8-2.1
		C32.6,25.2,31.7,24.8,30.8,24.5L30.8,24.5z M30.3,24.3c-0.5-0.2-1-0.4-1-1c0-0.5,0.4-0.8,1-0.8V24.3z M30.8,27.7v-2.1
		c0.5,0.2,0.9,0.5,0.9,1.1C31.6,27.3,31.3,27.6,30.8,27.7L30.8,27.7z M30.8,27.7"/>
</g>
</svg>
