<?xml version="1.0" encoding="utf-8"?>
<!-- Generator: Adobe Illustrator 22.0.1, SVG Export Plug-In . SVG Version: 6.00 Build 0)  -->
<svg version="1.1" id="Camada_1" xmlns="http://www.w3.org/2000/svg" xmlns:xlink="http://www.w3.org/1999/xlink" x="0px" y="0px"
	 width="40px" height="35px" viewBox="0 0 40 35" style="enable-background:new 0 0 40 35;" xml:space="preserve">
<style type="text/css">
	.st0{fill:#FFFFFF;}
</style>
<g>
	<path class="st0" d="M0.2,11.8l17.6,21.8l-8-21.8H0.2z M0.2,11.8"/>
	<path class="st0" d="M11.4,11.8L19.9,35l8.7-23.2H11.4z M11.4,11.8"/>
	<path class="st0" d="M21.8,34.1l18-22.4h-9.7L21.8,34.1z M21.8,34.1"/>
	<path class="st0" d="M32.9,0H21.5l7.8,9.6L32.9,0z M32.9,0"/>
	<path class="st0" d="M28,10.3l-8-9.9l-8,9.9H28z M28,10.3"/>
	<path class="st0" d="M18.5,0H7.1l3.5,9.7L18.5,0z M18.5,0"/>
	<path class="st0" d="M5.9,0.9L0,10.3h9.3L5.9,0.9z M5.9,0.9"/>
	<path class="st0" d="M40,10.3l-5.9-9.4l-3.5,9.4H40z M40,10.3"/>
</g>
</svg>
