<?xml version="1.0" encoding="utf-8"?>
<!-- Generator: Adobe Illustrator 22.0.1, SVG Export Plug-In . SVG Version: 6.00 Build 0)  -->
<svg version="1.1" id="Camada_1" xmlns="http://www.w3.org/2000/svg" xmlns:xlink="http://www.w3.org/1999/xlink" x="0px" y="0px"
	 width="40px" height="52.4px" viewBox="0 0 40 52.4" style="enable-background:new 0 0 40 52.4;" xml:space="preserve">
<style type="text/css">
	.st0{fill:#FFFFFF;}
</style>
<g>
	<path class="st0" d="M34,20.8c0.3,1.3,1.5,2.3,3,2.3c1.7,0,3.1-1.4,3.1-3.1c0-1.7-1.4-3.1-3.1-3.1c-1.4,0-2.6,1-3,2.3H23
		c0,0,0,0,0-0.1l9.5-5.5c0.6,0.6,1.4,0.9,2.2,0.9c0.5,0,1-0.1,1.5-0.4c1.5-0.8,2-2.7,1.1-4.2c-0.8-1.5-2.7-2-4.2-1.1
		c-1.2,0.7-1.8,2.1-1.4,3.5l-9.5,5.5c0,0,0,0-0.1-0.1l1.7-2.9c0.2-0.4,0.1-0.8-0.3-1.1c-0.4-0.2-0.8-0.1-1.1,0.3L20.9,17
		c0,0-0.1,0-0.1,0V6c1.3-0.3,2.3-1.5,2.3-3C23.1,1.4,21.7,0,20,0s-3.1,1.4-3.1,3.1c0,1.4,1,2.6,2.3,3v10.9c0,0-0.1,0-0.1,0l-5.5-9.5
		c1-1,1.2-2.5,0.5-3.7c-0.4-0.7-1.1-1.2-1.9-1.4c-0.8-0.2-1.6-0.1-2.3,0.3C9.3,3.1,8.8,3.7,8.6,4.5C8.4,5.3,8.5,6.1,8.9,6.9
		c0.4,0.7,1.1,1.2,1.9,1.4c0.3,0.1,0.5,0.1,0.8,0.1c0.3,0,0.5,0,0.8-0.1l5.5,9.5c0,0,0,0-0.1,0.1l-9.5-5.5C8.6,11,8.1,9.6,6.8,8.9
		C5.4,8,3.5,8.5,2.7,10c-0.8,1.5-0.3,3.3,1.1,4.2c0.5,0.3,1,0.4,1.5,0.4c0.8,0,1.6-0.3,2.2-0.9l9.5,5.5c0,0,0,0,0,0.1H6
		c-0.3-1.3-1.5-2.3-3-2.3C1.4,16.9,0,18.3,0,20c0,1.7,1.4,3.1,3.1,3.1c1.4,0,2.6-1,3-2.3h11.1c0,0,0,0,0,0l-9.6,5.5
		c-1-1-2.5-1.2-3.7-0.5c-1.5,0.8-2,2.7-1.1,4.2c0.4,0.7,1.1,1.2,1.9,1.4c0.3,0.1,0.5,0.1,0.8,0.1c0.5,0,1.1-0.1,1.5-0.4
		c1.2-0.7,1.8-2.1,1.4-3.5l9.1-5.2c0,0.1,0,0.3,0,0.4v0.3l-5,8.6c-0.5-0.1-1.1-0.1-1.6,0c-0.8,0.2-1.4,0.7-1.9,1.4
		c-0.4,0.7-0.5,1.5-0.3,2.3c0.2,0.8,0.7,1.4,1.4,1.9c0.5,0.3,1,0.4,1.5,0.4c0.3,0,0.5,0,0.8-0.1c0.8-0.2,1.4-0.7,1.9-1.4
		c0.1-0.2,0.2-0.4,0.3-0.7c1.4,1.7,2.5,3.8,3.3,6c0.7,1.8,1.9,3.2,3.6,4.2L21,51.6c0,0.2,0.1,0.4,0.2,0.6c0.1,0.2,0.3,0.2,0.6,0.2
		h8.5c0.2,0,0.4-0.1,0.6-0.2c0.1-0.2,0.2-0.4,0.2-0.6l-0.4-5.8c1.8-1.1,3.2-2.8,3.8-4.7c0.1-0.4-0.1-0.8-0.5-1
		c-0.4-0.1-0.8,0.1-1,0.5c-0.5,1.7-1.8,3.2-3.5,4.1c-0.3,0.1-0.4,0.4-0.4,0.7l0.4,5.4h-6.9l0.4-5.4c0-0.3-0.1-0.6-0.4-0.7
		c-1.5-0.8-2.7-2.1-3.3-3.7c-1-2.5-2.2-4.8-3.8-6.7L15.2,34c-0.3-0.5-0.1-1,0.2-1.3c0.3-0.3,0.8-0.5,1.3-0.2
		c0.3,0.2,0.5,0.4,0.7,0.7c0.2,0.3,0.5,0.5,0.9,0.4c0.3-0.1,0.6-0.4,0.6-0.7l0-10c0-0.3,0.1-0.7,0.4-0.9c0.3-0.2,0.6-0.3,0.9-0.3
		c0.6,0.1,1.1,0.6,1.1,1.2v9.8c0,0.4,0.3,0.8,0.8,0.8c0.4,0,0.8-0.3,0.8-0.8v-3.1c0-0.6,0.6-1.2,1.3-1.2c0.7,0,1.2,0.5,1.2,1.2
		c0,0,0,0,0,0v3.1c0,0.4,0.3,0.8,0.8,0.8c0.4,0,0.8-0.3,0.8-0.8v-3c0,0,0,0,0,0c0-0.7,0.5-1.2,1.2-1.2c0.6,0,1.1,0.4,1.2,1l0,3.3
		c0,0.4,0.3,0.8,0.8,0.8c0.4,0,0.8-0.3,0.8-0.8v-1.9c0.1-0.6,0.6-1,1.2-1H32c0.6,0,1.2,0.5,1.2,1.1v4.8c0,0.4,0.3,0.8,0.8,0.8
		c0.4,0,0.8-0.3,0.8-0.8v-4.1c0.2,0,0.5,0,0.7-0.1c0.8-0.2,1.4-0.7,1.9-1.4c0.8-1.5,0.3-3.3-1.1-4.2c-1.2-0.7-2.7-0.5-3.7,0.5
		l-9.6-5.5c0,0,0,0,0,0H34z M36.9,18.5c0.8,0,1.5,0.7,1.5,1.5c0,0.8-0.7,1.5-1.5,1.5c-0.8,0-1.5-0.7-1.5-1.5
		C35.4,19.2,36.1,18.5,36.9,18.5L36.9,18.5z M33.9,10.2c0.2-0.1,0.5-0.2,0.8-0.2c0.1,0,0.3,0,0.4,0.1c0.4,0.1,0.7,0.4,0.9,0.7
		c0.4,0.7,0.2,1.7-0.6,2.1c-0.4,0.2-0.8,0.3-1.1,0.2c-0.4-0.1-0.7-0.4-0.9-0.7C32.9,11.6,33.2,10.6,33.9,10.2L33.9,10.2z M12.3,6.6
		c-0.4,0.2-0.8,0.3-1.1,0.2c-0.4-0.1-0.7-0.4-0.9-0.7C10,5.7,10,5.3,10.1,4.9c0.1-0.4,0.4-0.7,0.7-0.9c0.2-0.1,0.5-0.2,0.8-0.2
		c0.1,0,0.3,0,0.4,0.1c0.4,0.1,0.7,0.4,0.9,0.7C13.3,5.3,13,6.2,12.3,6.6L12.3,6.6z M6.6,12.3c-0.2,0.4-0.5,0.6-0.9,0.7
		c-0.4,0.1-0.8,0.1-1.1-0.2c-0.7-0.4-1-1.3-0.6-2.1c0.2-0.4,0.5-0.6,0.9-0.7C5.1,10,5.2,10,5.3,10c0.3,0,0.5,0.1,0.8,0.2
		C6.8,10.6,7.1,11.6,6.6,12.3L6.6,12.3z M3.1,21.5c-0.8,0-1.5-0.7-1.5-1.5c0-0.8,0.7-1.5,1.5-1.5c0.8,0,1.5,0.7,1.5,1.5
		C4.6,20.8,3.9,21.5,3.1,21.5L3.1,21.5z M6.1,29.8C5.7,30,5.3,30,4.9,29.9c-0.4-0.1-0.7-0.4-0.9-0.7c-0.4-0.7-0.2-1.7,0.6-2.1
		c0.7-0.4,1.7-0.2,2.1,0.6C7.1,28.4,6.8,29.4,6.1,29.8L6.1,29.8z M12.8,35.4c-0.2,0.4-0.5,0.6-0.9,0.7c-0.4,0.1-0.8,0.1-1.1-0.2
		c-0.4-0.2-0.6-0.5-0.7-0.9c-0.1-0.4-0.1-0.8,0.2-1.1c0.2-0.4,0.5-0.6,0.9-0.7c0.4-0.1,0.8-0.1,1.1,0.2c0.4,0.2,0.6,0.5,0.7,0.9
		C13.1,34.7,13,35.1,12.8,35.4L12.8,35.4z M13.7,32.5C13.7,32.5,13.7,32.5,13.7,32.5l0.1-0.2C13.8,32.4,13.7,32.4,13.7,32.5
		L13.7,32.5z M17.3,31c-1-0.5-2.2-0.3-3,0.5c-0.1,0.1-0.3,0.3-0.4,0.4l3.3-5.8L17.3,31z M18.5,3.1c0-0.8,0.7-1.5,1.5-1.5
		c0.8,0,1.5,0.7,1.5,1.5c0,0.8-0.7,1.5-1.5,1.5C19.2,4.6,18.5,3.9,18.5,3.1L18.5,3.1z M21.4,20.5c-0.3-0.2-0.7-0.3-1.1-0.4
		c-0.6-0.1-1.2,0.1-1.7,0.4c-0.1-0.2-0.1-0.4-0.1-0.6c0-0.8,0.7-1.5,1.5-1.5c0.8,0,1.5,0.7,1.5,1.5C21.5,20.1,21.5,20.3,21.4,20.5
		L21.4,20.5z M33.4,27.7c0.4-0.7,1.3-1,2.1-0.6c0.7,0.4,1,1.3,0.6,2.1c-0.2,0.4-0.5,0.6-0.9,0.7c-0.2,0-0.3,0.1-0.5,0
		c-0.2-0.7-0.8-1.3-1.4-1.6C33.2,28.2,33.2,27.9,33.4,27.7L33.4,27.7z M22.8,27.1v-0.8l0.4,0.6C23,27,22.9,27.1,22.8,27.1L22.8,27.1
		z M31.7,27.7c0,0.2-0.1,0.3-0.1,0.5c-0.4,0-0.8,0.2-1.1,0.4c-0.4-1-1.4-1.7-2.5-1.7c-0.8,0-1.5,0.3-2,0.8c-0.3-0.3-0.7-0.5-1.1-0.7
		l-2.1-3.7v-0.4c0-0.1,0-0.3,0-0.4L31.7,27.7z M31.7,27.7"/>
	<path class="st0" d="M31.4,4.5c-0.2-0.8-0.7-1.4-1.4-1.9c-0.7-0.4-1.5-0.5-2.3-0.3c-0.8,0.2-1.4,0.7-1.9,1.4
		c-0.7,1.2-0.5,2.7,0.5,3.7l-1.1,1.9c-0.2,0.4-0.1,0.8,0.3,1.1c0.1,0.1,0.3,0.1,0.4,0.1c0.3,0,0.5-0.1,0.7-0.4l1.1-1.9
		c0.3,0.1,0.5,0.1,0.8,0.1c0.3,0,0.5,0,0.8-0.1c0.8-0.2,1.4-0.7,1.9-1.4C31.5,6.1,31.6,5.3,31.4,4.5L31.4,4.5z M29.8,6.1
		c-0.2,0.4-0.5,0.6-0.9,0.7c-0.4,0.1-0.8,0.1-1.1-0.2c-0.7-0.4-1-1.3-0.6-2.1c0.2-0.4,0.5-0.6,0.9-0.7c0.1,0,0.3-0.1,0.4-0.1
		c0.3,0,0.5,0.1,0.8,0.2c0.4,0.2,0.6,0.5,0.7,0.9C30,5.3,30,5.7,29.8,6.1L29.8,6.1z M29.8,6.1"/>
</g>
</svg>
