<?xml version="1.0" encoding="utf-8"?>
<!-- Generator: Adobe Illustrator 22.0.1, SVG Export Plug-In . SVG Version: 6.00 Build 0)  -->
<svg version="1.1" id="Camada_1" xmlns="http://www.w3.org/2000/svg" xmlns:xlink="http://www.w3.org/1999/xlink" x="0px" y="0px"
	 width="40px" height="40px" viewBox="0 0 40 40" style="enable-background:new 0 0 40 40;" xml:space="preserve">
<style type="text/css">
	.st0{fill:#FFFFFF;}
</style>
<g>
	<path class="st0" d="M35,33.3c3.1-3.5,5-8.2,5-13.3c0-5.3-2.1-10.1-5.4-13.7c0,0,0,0,0,0C31.1,2.6,26.2,0.2,20.7,0l-0.4,0
		c-0.1,0-0.2,0-0.3,0c-0.1,0-0.2,0-0.3,0l-0.4,0C13.9,0.2,8.9,2.6,5.4,6.3c0,0,0,0,0,0c0,0,0,0,0,0C2.1,9.9,0,14.7,0,20
		c0,5.1,1.9,9.7,5,13.3c0,0,0,0,0,0c0,0,0,0,0,0c3.5,3.9,8.6,6.5,14.2,6.7l0.4,0c0.1,0,0.2,0,0.3,0c0.1,0,0.2,0,0.3,0l0.4,0h0
		C26.3,39.8,31.4,37.2,35,33.3C34.9,33.3,34.9,33.3,35,33.3C35,33.3,35,33.3,35,33.3L35,33.3z M1.4,20.7h8.3
		c0.1,2.9,0.7,5.8,1.7,8.4c-2,0.7-3.8,1.7-5.6,2.8C3.2,28.9,1.6,25,1.4,20.7L1.4,20.7z M6.1,7.6c1.7,1.1,3.5,2,5.4,2.7
		c-1.2,2.8-1.8,5.9-1.9,9H1.4C1.6,14.8,3.3,10.7,6.1,7.6L6.1,7.6z M38.6,19.3h-8.3c-0.1-3.1-0.7-6.2-1.9-9c1.9-0.7,3.7-1.6,5.4-2.7
		C36.7,10.7,38.4,14.8,38.6,19.3L38.6,19.3z M19.3,10.3c-2-0.1-4-0.4-5.8-0.9c1.4-2.9,3.4-5.5,5.8-7.6V10.3z M19.3,11.7v7.6h-8.3
		c0.1-3,0.7-5.9,1.8-8.6C15,11.3,17.1,11.6,19.3,11.7L19.3,11.7z M20.7,11.7c2.2-0.1,4.3-0.4,6.4-1c1.1,2.7,1.8,5.6,1.8,8.6h-8.3
		V11.7z M20.7,10.3V1.8c2.5,2.2,4.4,4.7,5.8,7.6C24.6,10,22.7,10.3,20.7,10.3L20.7,10.3z M27.9,9c-1.3-2.8-3.2-5.3-5.4-7.5
		c4,0.5,7.7,2.4,10.5,5C31.3,7.6,29.6,8.4,27.9,9L27.9,9z M12.1,9c-1.8-0.6-3.4-1.4-5-2.4c2.8-2.7,6.4-4.5,10.5-5
		C15.3,3.7,13.5,6.2,12.1,9L12.1,9z M11.1,20.7h8.3v6.9c-2.3,0.1-4.5,0.4-6.7,1.1C11.7,26.2,11.1,23.5,11.1,20.7L11.1,20.7z
		 M19.3,29v9.2c-2.6-2.3-4.7-5.1-6.1-8.2C15.2,29.4,17.2,29.1,19.3,29L19.3,29z M20.7,38.2V29c2.1,0.1,4.1,0.4,6.1,1
		C25.4,33.1,23.3,35.9,20.7,38.2L20.7,38.2z M20.7,27.6v-6.9h8.3c-0.1,2.8-0.6,5.5-1.6,8C25.2,28,23,27.7,20.7,27.6L20.7,27.6z
		 M30.3,20.7h8.3c-0.2,4.3-1.8,8.2-4.4,11.3c-1.8-1.2-3.6-2.1-5.6-2.8C29.7,26.5,30.2,23.6,30.3,20.7L30.3,20.7z M6.7,33
		c1.6-1.1,3.4-2,5.2-2.6c1.3,3,3.3,5.7,5.7,8.1C13.3,37.9,9.5,35.9,6.7,33L6.7,33z M22.4,38.5c2.4-2.3,4.4-5.1,5.7-8.1
		c1.8,0.6,3.6,1.5,5.2,2.6C30.5,35.9,26.7,37.9,22.4,38.5L22.4,38.5z M22.4,38.5"/>
</g>
</svg>
