<?xml version="1.0" encoding="utf-8"?>
<!-- Generator: Adobe Illustrator 22.0.1, SVG Export Plug-In . SVG Version: 6.00 Build 0)  -->
<svg version="1.1" id="Camada_1" xmlns="http://www.w3.org/2000/svg" xmlns:xlink="http://www.w3.org/1999/xlink" x="0px" y="0px"
	 width="40px" height="42.6px" viewBox="0 0 40 42.6" style="enable-background:new 0 0 40 42.6;" xml:space="preserve">
<style type="text/css">
	.st0{fill:#FFFFFF;}
</style>
<g>
	<path class="st0" d="M13.3,24.5l-1.1,1c-0.2,0.1-0.2,0.3-0.2,0.6v0.4c0,0.4,0.3,0.8,0.8,0.8h6.4c0.4,0,0.8-0.3,0.8-0.8V26
		c0-0.4-0.3-0.8-0.8-0.8h-3.5l0.1-0.1c2.3-2.2,3.9-4,3.9-6.3c0-1.8-1.2-3.7-3.8-3.7c-1.2,0-2.3,0.4-3.2,1c-0.3,0.2-0.4,0.6-0.2,0.9
		l0.2,0.4c0.1,0.2,0.3,0.4,0.5,0.4c0.2,0.1,0.5,0,0.7-0.1c0.6-0.4,1.2-0.6,1.8-0.6c1.2,0,1.8,0.6,1.8,1.7C17.2,20.6,16,22,13.3,24.5
		L13.3,24.5z M13.3,24.5"/>
	<path class="st0" d="M24.9,15.4C24.9,15.4,24.9,15.4,24.9,15.4l-0.3,0c-0.3,0-0.5,0.1-0.6,0.3l-4.8,6.8c-0.1,0.1-0.1,0.3-0.1,0.4
		v0.5c0,0.4,0.3,0.8,0.8,0.8h4.4v2.2c0,0.4,0.3,0.8,0.8,0.8h0.7c0.4,0,0.8-0.3,0.8-0.8v-2.2h0.8c0.4,0,0.8-0.3,0.8-0.8v-0.5
		c0-0.4-0.4-0.8-0.8-0.8h-0.8v-6.1c0-0.4-0.3-0.8-0.8-0.8L24.9,15.4C25,15.4,24.9,15.4,24.9,15.4L24.9,15.4z M24.2,22.3h-2.4
		c0.6-0.9,1.6-2.4,2.4-3.5V22.3z M24.2,22.3"/>
	<path class="st0" d="M20,39.2c-9.2,0-16.7-7.5-16.7-16.7c0-8.7,6.7-15.9,15.2-16.6v2.7c0,0.2,0.1,0.4,0.3,0.5
		c0.1,0,0.2,0.1,0.2,0.1c0.1,0,0.2,0,0.3-0.1l6-4c0.1-0.1,0.2-0.3,0.2-0.4c0-0.2-0.1-0.3-0.2-0.4l-6-4C19.2,0,19,0,18.9,0.1
		c-0.2,0.1-0.3,0.3-0.3,0.5v2.1C8.2,3.3,0,12,0,22.5c0,11,9,20,20,20c5.1,0,10-1.9,13.7-5.4l-2.3-2.5C28.3,37.6,24.3,39.2,20,39.2
		L20,39.2z M20,39.2"/>
	<path class="st0" d="M37.1,12.1c-0.7-1.1-1.5-2.2-2.4-3.2l-2.5,2.3c0.7,0.8,1.4,1.7,2,2.6L37.1,12.1z M37.1,12.1"/>
	<path class="st0" d="M36.5,20.3l3.3-0.5c-0.2-1.3-0.5-2.6-0.9-3.9l-3.2,1.1C36.1,18.1,36.4,19.2,36.5,20.3L36.5,20.3z M36.5,20.3"
		/>
	<path class="st0" d="M31.5,6.1c-1.1-0.8-2.3-1.4-3.5-1.9l-1.4,3.1c1,0.4,2,1,2.9,1.6L31.5,6.1z M31.5,6.1"/>
	<path class="st0" d="M32.9,33.1l2.6,2.1c0.8-1,1.6-2.1,2.2-3.3l-3-1.6C34.2,31.3,33.6,32.3,32.9,33.1L32.9,33.1z M32.9,33.1"/>
	<path class="st0" d="M36.6,23.8c-0.1,1.1-0.3,2.2-0.6,3.3l3.2,0.9c0.4-1.3,0.6-2.6,0.7-3.9L36.6,23.8z M36.6,23.8"/>
</g>
</svg>
