<?xml version="1.0" encoding="utf-8"?>
<!-- Generator: Adobe Illustrator 22.0.1, SVG Export Plug-In . SVG Version: 6.00 Build 0)  -->
<svg version="1.1" id="Camada_1" xmlns="http://www.w3.org/2000/svg" xmlns:xlink="http://www.w3.org/1999/xlink" x="0px" y="0px"
	 width="40px" height="39.3px" viewBox="0 0 40 39.3" style="enable-background:new 0 0 40 39.3;" xml:space="preserve">
<style type="text/css">
	.st0{fill:#FFFFFF;}
	.st1{fill:#222221;stroke:#FFFFFF;stroke-width:0.5;stroke-miterlimit:10;}
</style>
<g>
	<rect x="0.7" y="0" class="st0" width="38.7" height="4"/>
	<rect x="2" y="4" class="st1" width="36" height="28"/>
	<path class="st0" d="M12.7,12.7h-6C6.3,12.7,6,12.4,6,12c0-0.4,0.3-0.7,0.7-0.7h6c0.4,0,0.7,0.3,0.7,0.7
		C13.3,12.4,13,12.7,12.7,12.7L12.7,12.7z M12.7,12.7"/>
	<path class="st0" d="M10,10.7H6.7C6.3,10.7,6,10.4,6,10s0.3-0.7,0.7-0.7H10c0.4,0,0.7,0.3,0.7,0.7S10.4,10.7,10,10.7L10,10.7z
		 M10,10.7"/>
	<path class="st0" d="M12.7,14.7h-6C6.3,14.7,6,14.4,6,14c0-0.4,0.3-0.7,0.7-0.7h6c0.4,0,0.7,0.3,0.7,0.7
		C13.3,14.4,13,14.7,12.7,14.7L12.7,14.7z M12.7,14.7"/>
	<path class="st0" d="M8,27.3c-0.2,0-0.3-0.1-0.5-0.2c-0.3-0.3-0.3-0.7,0-0.9l8.4-8.4c0.3-0.3,0.7-0.3,0.9,0c0.3,0.3,0.3,0.7,0,0.9
		l-8.4,8.4C8.3,27.3,8.2,27.3,8,27.3L8,27.3z M8,27.3"/>
	<path class="st0" d="M22.4,24.9c-0.2,0-0.3-0.1-0.5-0.2l-6-6c-0.3-0.3-0.3-0.7,0-0.9c0.3-0.3,0.7-0.3,0.9,0l6,6
		c0.3,0.3,0.3,0.7,0,0.9C22.7,24.9,22.6,24.9,22.4,24.9L22.4,24.9z M22.4,24.9"/>
	<path class="st0" d="M22.4,24.9c-0.2,0-0.3-0.1-0.5-0.2c-0.3-0.3-0.3-0.7,0-0.9l9.6-9.6c0.3-0.3,0.7-0.3,0.9,0
		c0.3,0.3,0.3,0.7,0,0.9l-9.6,9.6C22.7,24.9,22.6,24.9,22.4,24.9L22.4,24.9z M22.4,24.9"/>
	<path class="st0" d="M32,20c-0.4,0-0.7-0.3-0.7-0.7v-4.7c0-0.4,0.3-0.7,0.7-0.7c0.4,0,0.7,0.3,0.7,0.7v4.7C32.7,19.7,32.4,20,32,20
		L32,20z M32,20"/>
	<path class="st0" d="M32,15.3h-4.7c-0.4,0-0.7-0.3-0.7-0.7c0-0.4,0.3-0.7,0.7-0.7H32c0.4,0,0.7,0.3,0.7,0.7
		C32.7,15,32.4,15.3,32,15.3L32,15.3z M32,15.3"/>
	<path class="st0" d="M39.3,32.7H0.7C0.3,32.7,0,32.4,0,32c0-0.4,0.3-0.7,0.7-0.7h38.7c0.4,0,0.7,0.3,0.7,0.7
		C40,32.4,39.7,32.7,39.3,32.7L39.3,32.7z M39.3,32.7"/>
	<path class="st0" d="M20,34.7c-0.4,0-0.7-0.3-0.7-0.7v-2c0-0.4,0.3-0.7,0.7-0.7s0.7,0.3,0.7,0.7v2C20.7,34.4,20.4,34.7,20,34.7
		L20,34.7z M20,34.7"/>
	<path class="st0" d="M20,39.3c-1.5,0-2.7-1.2-2.7-2.7c0-1.5,1.2-2.7,2.7-2.7c1.5,0,2.7,1.2,2.7,2.7C22.7,38.1,21.5,39.3,20,39.3
		L20,39.3z M20,35.3c-0.7,0-1.3,0.6-1.3,1.3c0,0.7,0.6,1.3,1.3,1.3c0.7,0,1.3-0.6,1.3-1.3C21.3,35.9,20.7,35.3,20,35.3L20,35.3z
		 M20,35.3"/>
</g>
</svg>
