<?xml version="1.0" encoding="utf-8"?>
<!-- Generator: Adobe Illustrator 22.0.1, SVG Export Plug-In . SVG Version: 6.00 Build 0)  -->
<svg version="1.1" id="Camada_1" xmlns="http://www.w3.org/2000/svg" xmlns:xlink="http://www.w3.org/1999/xlink" x="0px" y="0px"
	 width="16px" height="16px" viewBox="0 0 16 16" style="enable-background:new 0 0 16 16;" xml:space="preserve">
<style type="text/css">
	.st0{fill:#FFFFFF;}
</style>
<g id="arrow-down">
	<path class="st0" d="M7.6,9.5C7.7,9.6,7.9,9.6,8,9.6c0.1,0,0.3-0.1,0.4-0.2l7.5-7.7C15.9,1.6,16,1.5,16,1.4c0-0.1-0.1-0.3-0.2-0.4
		L15,0.2C14.9,0.1,14.8,0,14.7,0c-0.1,0-0.3,0.1-0.4,0.2L8,6.7L1.7,0.2C1.6,0.1,1.5,0,1.3,0C1.2,0,1.1,0.1,1,0.2L0.2,1
		C0.1,1.1,0,1.2,0,1.4c0,0.1,0.1,0.3,0.2,0.4L7.6,9.5z M7.6,9.5"/>
	<path class="st0" d="M15,6.5c-0.1-0.1-0.2-0.2-0.4-0.2c-0.1,0-0.3,0.1-0.4,0.2L8,13L1.7,6.5C1.6,6.4,1.5,6.4,1.3,6.4
		C1.2,6.4,1.1,6.4,1,6.5L0.2,7.4C0.1,7.5,0,7.6,0,7.7C0,7.9,0.1,8,0.2,8.1l7.5,7.7C7.7,15.9,7.9,16,8,16c0.1,0,0.3-0.1,0.4-0.2
		l7.5-7.7C15.9,8,16,7.9,16,7.7c0-0.1-0.1-0.3-0.2-0.4L15,6.5z M15,6.5"/>
</g>
</svg>
