<?xml version="1.0" encoding="utf-8"?>
<!-- Generator: Adobe Illustrator 22.0.1, SVG Export Plug-In . SVG Version: 6.00 Build 0)  -->
<svg version="1.1" id="Camada_1" xmlns="http://www.w3.org/2000/svg" xmlns:xlink="http://www.w3.org/1999/xlink" x="0px" y="0px"
	 width="12px" height="22.2px" viewBox="0 0 12 22.2" style="enable-background:new 0 0 12 22.2;" xml:space="preserve">
<style type="text/css">
	.st0{fill:#AC284D;}
</style>
<path class="st0" d="M11.5,0L8.7,0C5.4,0,3.3,2.1,3.3,5.5V8H0.5C0.2,8,0,8.2,0,8.4v3.6c0,0.2,0.2,0.5,0.5,0.5h2.9v9.2
	c0,0.2,0.2,0.5,0.5,0.5h3.8C7.8,22.2,8,22,8,21.7v-9.2h3.4c0.3,0,0.5-0.2,0.5-0.5l0-3.6c0-0.1,0-0.2-0.1-0.3C11.6,8,11.5,8,11.4,8H8
	V5.8c0-1,0.2-1.5,1.6-1.5l1.9,0c0.3,0,0.5-0.2,0.5-0.5V0.5C12,0.2,11.8,0,11.5,0L11.5,0z M11.5,0"/>
</svg>
