<?xml version="1.0" encoding="utf-8"?>
<!-- Generator: Adobe Illustrator 22.0.1, SVG Export Plug-In . SVG Version: 6.00 Build 0)  -->
<svg version="1.1" id="Camada_1" xmlns="http://www.w3.org/2000/svg" xmlns:xlink="http://www.w3.org/1999/xlink" x="0px" y="0px"
	 width="15.6px" height="25px" viewBox="0 0 15.6 25" style="enable-background:new 0 0 15.6 25;" xml:space="preserve">
<style type="text/css">
	.st0{fill:#F4F4F4;}
</style>
<path class="st0" d="M15.4,13.1c0.2-0.2,0.3-0.4,0.3-0.6c0-0.2-0.1-0.4-0.3-0.6L2.8,0.2C2.7,0.1,2.5,0,2.2,0C2,0,1.8,0.1,1.6,0.2
	L0.3,1.5C0.1,1.7,0,1.9,0,2.1c0,0.2,0.1,0.4,0.3,0.6l10.6,9.8L0.3,22.3C0.1,22.5,0,22.7,0,22.9c0,0.2,0.1,0.4,0.3,0.6l1.3,1.3
	C1.8,24.9,2,25,2.2,25c0.2,0,0.4-0.1,0.6-0.3L15.4,13.1z"/>
</svg>
