<?xml version="1.0" encoding="utf-8"?>
<!-- Generator: Adobe Illustrator 22.0.1, SVG Export Plug-In . SVG Version: 6.00 Build 0)  -->
<svg version="1.1" id="Camada_1" xmlns="http://www.w3.org/2000/svg" xmlns:xlink="http://www.w3.org/1999/xlink" x="0px" y="0px"
	 width="16px" height="16px" viewBox="0 0 16 16" style="enable-background:new 0 0 16 16;" xml:space="preserve">
<style type="text/css">
	.st0{fill:#1D1D1B;}
</style>
<g id="arrow-down">
	<path class="st0" d="M0.2,14.2C0.1,14.3,0,14.5,0,14.6c0,0.2,0.1,0.3,0.2,0.4L1,15.8C1.1,15.9,1.2,16,1.3,16c0.2,0,0.3-0.1,0.4-0.2
		L8,9.3l6.3,6.5c0.1,0.1,0.3,0.2,0.4,0.2s0.2-0.1,0.3-0.2l0.8-0.8c0.1-0.1,0.2-0.3,0.2-0.4c0-0.1-0.1-0.2-0.1-0.3L8.4,6.6
		C8.3,6.5,8.1,6.4,8,6.4c-0.1,0-0.3,0-0.4,0.1L0.2,14.2z"/>
	<path class="st0" d="M15.8,8.7C15.9,8.6,16,8.4,16,8.3c0-0.2-0.1-0.3-0.1-0.4L8.4,0.2C8.3,0.1,8.1,0,8,0C7.9,0,7.7,0.1,7.7,0.2
		L0.2,7.9C0.1,8,0,8.1,0,8.3c0,0.1,0.1,0.2,0.2,0.3L1,9.5c0.1,0.1,0.2,0.1,0.3,0.1c0.2,0,0.3,0,0.4-0.1L8,3l6.2,6.5
		c0.1,0.1,0.3,0.2,0.4,0.2c0.2,0,0.3-0.1,0.4-0.2L15.8,8.7z"/>
</g>
</svg>
