<?xml version="1.0" encoding="utf-8"?>
<!-- Generator: Adobe Illustrator 22.0.1, SVG Export Plug-In . SVG Version: 6.00 Build 0)  -->
<svg version="1.1" id="Camada_1" xmlns="http://www.w3.org/2000/svg" xmlns:xlink="http://www.w3.org/1999/xlink" x="0px" y="0px"
	 width="40px" height="40px" viewBox="0 0 40 40" style="enable-background:new 0 0 40 40;" xml:space="preserve">
<g>
	<path d="M8.8,22.4c-1.8,0-3.3,1.5-3.3,3.3c0,1.8,1.5,3.3,3.3,3.3c1.8,0,3.3-1.5,3.3-3.3C12.1,23.9,10.6,22.4,8.8,22.4z M8.8,27.7
		c-1.1,0-2-0.9-2-2c0-1.1,0.9-2,2-2s2,0.9,2,2C10.8,26.8,9.9,27.7,8.8,27.7z"/>
	<path d="M31.4,22.4c-1.8,0-3.3,1.5-3.3,3.3c0,1.8,1.5,3.3,3.3,3.3c1.8,0,3.3-1.5,3.3-3.3C34.7,23.9,33.3,22.4,31.4,22.4z
		 M31.4,27.7c-1.1,0-2-0.9-2-2c0-1.1,0.9-2,2-2c1.1,0,2,0.9,2,2C33.4,26.8,32.5,27.7,31.4,27.7z"/>
	<path d="M39.9,23.2c0.2-0.3-0.1-0.6-0.5-0.6h-0.1v-4c0-0.3-0.2-0.6-0.5-0.6l-3.7-1.2c-1.4-2.4-3.3-4.7-7.7-5.4l0,0
		c-7.9-1.1-13.9,0.7-17.8,5.3c-2.8,0.1-5.8,0.6-7.5,1.7c-0.9,0.6-1.4,1.5-1.5,2.6l-0.1,1.6c-0.3,0-0.7,0.3-0.7,0.7v2.7
		c0,0.3,0.3,0.7,0.7,0.7h2.8c0,0,0.7-0.5,0.7-0.8l0,0c0-2.4,2.1-4.4,4.7-4.4s4.7,2,4.7,4.5c-0.1,0.4,0.3,0.6,0.7,0.8h12
		c0.4-0.2,0.7-0.5,0.7-0.8l0,0c0-2.4,2.1-4.4,4.7-4.4s4.7,2,4.7,4.5c-0.1,0.4,0.3,0.6,0.7,0.8h2.7c0.3-0.2,0.7-0.5,0.5-0.8
		L39.9,23.2L39.9,23.2z M21.6,16c0,0.2-0.2,0.3-0.3,0.3h-8.7c-0.3,0-0.5-0.4-0.2-0.6c2.3-2.1,5.2-3.3,8.9-3.6c0.2,0,0.3,0.1,0.3,0.3
		L21.6,16C21.6,16,21.6,16,21.6,16z M29.6,16c0,0.2-0.2,0.3-0.3,0.3h-6.1c-0.2,0-0.3-0.2-0.3-0.3v-3.6c0-0.2,0.2-0.3,0.3-0.3
		c1.4,0,2.8,0.1,4.3,0.3c0.7,0.1,1.4,0.3,2,0.5c0.1,0.1,0.2,0.2,0.2,0.3L29.6,16z M32.9,16.3H31c-0.2,0-0.3-0.2-0.3-0.3v-1.8
		c0-0.3,0.3-0.4,0.5-0.3c0.7,0.5,1.3,1.1,1.9,1.9C33.3,16,33.1,16.3,32.9,16.3z"/>
</g>
</svg>
