<?xml version="1.0" encoding="utf-8"?>
<!-- Generator: Adobe Illustrator 22.0.1, SVG Export Plug-In . SVG Version: 6.00 Build 0)  -->
<svg version="1.1" id="Camada_1" xmlns="http://www.w3.org/2000/svg" xmlns:xlink="http://www.w3.org/1999/xlink" x="0px" y="0px"
	 width="40px" height="40px" viewBox="0 0 40 40" style="enable-background:new 0 0 40 40;" xml:space="preserve">
<style type="text/css">
	.st0{fill:#1D1D1B;}
</style>
<g>
	<path class="st0" d="M5.7,40h28.6V0H5.7V40z M27.3,32.8H12.7v-1.5h14.6V32.8z M29.2,29.6H10.8v-1.5h18.5
		C29.2,28.1,29.2,29.6,29.2,29.6z M12.7,26.7v-1.5h14.6v1.5H12.7z M7.2,1.5h25.6v15.2L7.2,22.9V1.5z M12,13.2
		c-0.3-0.1-0.6-0.2-1.1-0.1l-1.9,0.4l1.1,4.3l0.9-0.2l-0.4-1.5l0.9-0.2c0.4-0.1,0.8-0.3,1-0.6c0.2-0.3,0.2-0.6,0.1-1.1
		C12.5,13.7,12.3,13.4,12,13.2L12,13.2z M11.7,15c-0.1,0.1-0.3,0.2-0.4,0.2l-0.8,0.2l-0.3-1.2L11,14c0.2-0.1,0.4-0.1,0.5,0
		c0.1,0.1,0.2,0.2,0.3,0.4C11.8,14.6,11.8,14.8,11.7,15L11.7,15z M13.8,12.5L13.3,17l0.9-0.2l0.1-0.9l1.6-0.4l0.5,0.8l0.9-0.2
		l-2.6-3.9L13.8,12.5z M14.3,15.1l0.1-1.8l0.9,1.6L14.3,15.1z M21.1,14.8c0-0.1-0.1-0.2-0.1-0.4l-0.1-0.3c-0.1-0.3-0.1-0.5-0.3-0.6
		c-0.1-0.1-0.3-0.2-0.5-0.2c0.2-0.1,0.4-0.3,0.4-0.6c0.1-0.2,0.1-0.4,0-0.6c-0.1-0.1-0.1-0.3-0.2-0.4c-0.1-0.1-0.2-0.2-0.3-0.3
		c-0.1-0.1-0.3-0.1-0.5-0.2c-0.1,0-0.4,0-0.7,0.1l-2,0.5l1.1,4.2l0.9-0.2l-0.4-1.6l0.9-0.2c0.2-0.1,0.4-0.1,0.6,0
		c0.1,0.1,0.2,0.2,0.3,0.5l0.1,0.4c0,0.1,0.1,0.2,0.1,0.4c0,0.1,0.1,0.1,0.1,0.2l1-0.2V15C21.2,15,21.1,14.9,21.1,14.8L21.1,14.8z
		 M19.5,13c-0.1,0.1-0.2,0.1-0.4,0.1l-0.9,0.2l-0.3-1.1l1-0.2c0.2-0.1,0.4-0.1,0.4,0c0.2,0.1,0.3,0.2,0.4,0.4
		C19.7,12.7,19.6,12.9,19.5,13L19.5,13z M24.4,10.7l-1.3,0.3l0.9,3.5l-0.9,0.2l-0.9-3.4l-1.3,0.3l-0.2-0.7l3.4-0.9L24.4,10.7z
		 M28.1,8.9l-0.8,3l0.4,1.6l-0.9,0.2l-0.4-1.6l-2.1-2.3l1.1-0.3l1.4,1.6l0.4-2.1L28.1,8.9z M30.5,12l0.2,0.9l-0.9,0.2l-0.2-0.9
		L30.5,12z M29.8,11.8l-0.7-1.9l-0.3-1.1l0.9-0.2L30,9.7l0.3,2L29.8,11.8z M23.6,5.1H9.1V4h14.5V5.1z"/>
</g>
</svg>
