<?xml version="1.0" encoding="utf-8"?>
<!-- Generator: Adobe Illustrator 22.0.1, SVG Export Plug-In . SVG Version: 6.00 Build 0)  -->
<svg version="1.1" id="Camada_1" xmlns="http://www.w3.org/2000/svg" xmlns:xlink="http://www.w3.org/1999/xlink" x="0px" y="0px"
	 width="40px" height="40px" viewBox="0 0 40 40" style="enable-background:new 0 0 40 40;" xml:space="preserve">
<style type="text/css">
	.st0{fill:#FFFFFF;}
</style>
<g>
	<path class="st0" d="M23.4,7.9c0.8-0.8,1.3-2,1.3-3.2C24.7,2.1,22.6,0,20,0s-4.7,2.2-4.7,4.8c0,1.2,0.5,2.3,1.3,3.2
		c-2.2,1.2-3.7,3.5-3.7,6.2v1.1c0,0.7,0.6,1.1,1.1,1.1h11.7c0.7,0,1.1-0.6,1.1-1.1v-1.1C27,11.5,25.5,9.2,23.4,7.9L23.4,7.9z
		 M20,2.3c1.3,0,2.3,1.1,2.3,2.4s-1,2.3-2.3,2.3s-2.3-1-2.3-2.3S18.7,2.3,20,2.3L20,2.3z M15.3,14.1c0-2.6,2.1-4.7,4.7-4.7
		s4.7,2.1,4.7,4.7H15.3z"/>
	<path class="st0" d="M37.6,28.2H27v-5.8c0-0.7-0.6-1.1-1.1-1.1H14.1c-0.7,0-1.1,0.6-1.1,1.1v3.5H2.3c-0.7,0-1.1,0.6-1.1,1.1v11.8
		c0,0.7,0.6,1.1,1.1,1.1h35.2c0.7,0,1.1-0.6,1.1-1.1v-9.5C38.8,28.7,38.2,28.2,37.6,28.2L37.6,28.2z M13,37.7H3.6v-9.5H13V37.7z
		 M24.7,37.7h-9.4V23.5h9.4V37.7z M36.4,37.7H27v-7.1h9.4V37.7z"/>
	<path class="st0" d="M12.3,16.5l-2.8-1.4l-1.4-2.8c-0.2-0.4-0.6-0.7-1-0.7s-0.8,0.3-1,0.7l-1.4,2.8l-2.8,1.4
		c-0.3,0.2-0.6,0.6-0.6,1s0.3,0.8,0.7,1L4.7,20l1.4,2.8c0.2,0.4,0.6,0.7,1,0.7c0.5,0,0.8-0.3,1-0.7l1.4-2.8l2.8-1.4
		c0.4-0.2,0.7-0.6,0.7-1C13,17,12.7,16.7,12.3,16.5L12.3,16.5z M8.2,18.1c-0.2,0.1-0.4,0.3-0.6,0.6l-0.5,1l-0.5-1
		c-0.1-0.2-0.3-0.4-0.6-0.6l-1-0.5l1-0.5c0.2-0.1,0.4-0.3,0.6-0.6l0.5-1l0.5,1c0.1,0.2,0.3,0.4,0.6,0.6l1,0.5L8.2,18.1z"/>
	<path class="st0" d="M38.1,16.5l-2.8-1.4l-1.4-2.8c-0.2-0.4-0.6-0.7-1-0.7s-0.8,0.3-1,0.7l-1.4,2.8l-2.8,1.4
		c-0.4,0.2-0.7,0.6-0.7,1s0.3,0.8,0.7,1l2.8,1.4l1.4,2.8c0.2,0.4,0.6,0.7,1,0.7s0.8-0.3,1-0.7l1.4-2.8l2.8-1.4
		c0.4-0.2,0.7-0.6,0.7-1S38.5,16.7,38.1,16.5L38.1,16.5z M34,18.1c-0.2,0.1-0.4,0.3-0.6,0.6l-0.5,1l-0.5-1c-0.1-0.2-0.3-0.4-0.6-0.6
		l-1-0.5l1-0.5c0.2-0.1,0.4-0.3,0.6-0.6l0.5-1l0.5,1c0.1,0.2,0.3,0.4,0.6,0.6l1,0.5L34,18.1z"/>
</g>
</svg>
