<?xml version="1.0" encoding="utf-8"?>
<!-- Generator: Adobe Illustrator 22.0.1, SVG Export Plug-In . SVG Version: 6.00 Build 0)  -->
<svg version="1.1" id="Camada_1" xmlns="http://www.w3.org/2000/svg" xmlns:xlink="http://www.w3.org/1999/xlink" x="0px" y="0px"
	 width="40px" height="40px" viewBox="0 0 40 40" style="enable-background:new 0 0 40 40;" xml:space="preserve">
<g>
	<path d="M35.2,0H21.4c-0.5,0-1,0.2-1.4,0.5C19.6,0.2,19.2,0,18.6,0H4.8c-1.1,0-2,0.9-2,2V38c0,1.1,0.9,2,2,2h13.8
		c0.5,0,1-0.2,1.4-0.5c0.4,0.3,0.8,0.5,1.4,0.5h13.8c1.1,0,2-0.9,2-2V2C37.2,0.9,36.3,0,35.2,0L35.2,0z M19.4,2.8h-0.7
		c-0.4,0-0.6,0.3-0.6,0.6c0,0.4,0.3,0.6,0.6,0.6h0.7v31.9h-0.7c-0.4,0-0.6,0.3-0.6,0.6c0,0.4,0.3,0.6,0.6,0.6h0.7V38
		c0,0.4-0.3,0.7-0.7,0.7H4.8c-0.4,0-0.7-0.3-0.7-0.7V2c0-0.4,0.3-0.7,0.7-0.7h13.8c0.4,0,0.7,0.3,0.7,0.7V2.8z M35.9,38
		c0,0.4-0.3,0.7-0.7,0.7H21.4c-0.4,0-0.7-0.3-0.7-0.7v-0.7h0.7c0.4,0,0.6-0.3,0.6-0.6c0-0.4-0.3-0.6-0.6-0.6h-0.7V4.1h0.7
		c0.4,0,0.6-0.3,0.6-0.6c0-0.4-0.3-0.6-0.6-0.6h-0.7V2c0-0.4,0.3-0.7,0.7-0.7h13.8c0.4,0,0.7,0.3,0.7,0.7V38z M35.9,38"/>
	<path d="M16.5,11.6c0-0.3-0.3-0.6-0.6-0.6H7.6c-0.3,0-0.6,0.2-0.6,0.6l-0.7,5.6c-0.2,1.6,0.3,3.2,1.3,4.3c0.9,1,2.2,1.7,3.5,1.8
		v4.5c0,1-0.8,1.9-1.9,1.9c-0.4,0-0.6,0.3-0.6,0.6c0,0.4,0.3,0.6,0.6,0.6h5c0.4,0,0.6-0.3,0.6-0.6c0-0.4-0.3-0.6-0.6-0.6
		c-1,0-1.9-0.8-1.9-1.9v-4.5c1.3-0.2,2.6-0.8,3.5-1.8c1-1.2,1.5-2.8,1.3-4.3L16.5,11.6z M14.9,20.7c-0.8,0.9-2,1.4-3.2,1.4h0
		c-1.2,0-2.4-0.5-3.2-1.4c-0.4-0.4-0.6-0.9-0.8-1.4h8C15.5,19.8,15.3,20.3,14.9,20.7L14.9,20.7z M15.9,18H7.5c0-0.2,0-0.4,0-0.6
		l0.6-5h7.1l0.6,5C15.9,17.6,15.9,17.8,15.9,18L15.9,18z M15.9,18"/>
	<path d="M32.1,4.8h-7.6c-1.3,0-2.4,1.1-2.4,2.4c0,1.3,1.1,2.4,2.4,2.4h7.6c1.3,0,2.4-1.1,2.4-2.4C34.5,5.9,33.4,4.8,32.1,4.8
		L32.1,4.8z M32.1,8.3h-7.6c-0.6,0-1.1-0.5-1.1-1.1c0-0.6,0.5-1.1,1.1-1.1h7.6c0.6,0,1.1,0.5,1.1,1.1C33.2,7.8,32.7,8.3,32.1,8.3
		L32.1,8.3z M32.1,8.3"/>
	<path d="M32.4,12.4c0.4,0,0.6-0.3,0.6-0.6c0-0.4-0.3-0.6-0.6-0.6h-8.3c-0.4,0-0.6,0.3-0.6,0.6c0,0.4,0.3,0.6,0.6,0.6H32.4z
		 M32.4,12.4"/>
	<path d="M22.1,17.9c0,0.4,0.3,0.6,0.6,0.6h9.7c0.4,0,0.6-0.3,0.6-0.6c0-0.4-0.3-0.6-0.6-0.6h-9.7C22.4,17.3,22.1,17.6,22.1,17.9
		L22.1,17.9z M22.1,17.9"/>
	<path d="M22.8,21.3h6.9c0.4,0,0.6-0.3,0.6-0.6c0-0.4-0.3-0.6-0.6-0.6h-6.9c-0.4,0-0.6,0.3-0.6,0.6C22.1,21,22.4,21.3,22.8,21.3
		L22.8,21.3z M22.8,21.3"/>
	<path d="M33.8,20h-1.4c-0.4,0-0.6,0.3-0.6,0.6c0,0.4,0.3,0.6,0.6,0.6h1.4c0.4,0,0.6-0.3,0.6-0.6C34.5,20.3,34.2,20,33.8,20L33.8,20
		z M33.8,20"/>
	<path d="M22.8,24.1h9.7c0.4,0,0.6-0.3,0.6-0.6c0-0.4-0.3-0.6-0.6-0.6h-9.7c-0.4,0-0.6,0.3-0.6,0.6C22.1,23.8,22.4,24.1,22.8,24.1
		L22.8,24.1z M22.8,24.1"/>
	<path d="M22.8,26.9h6.9c0.4,0,0.6-0.3,0.6-0.6c0-0.4-0.3-0.6-0.6-0.6h-6.9c-0.4,0-0.6,0.3-0.6,0.6C22.1,26.6,22.4,26.9,22.8,26.9
		L22.8,26.9z M22.8,26.9"/>
	<path d="M33.8,25.6h-1.4c-0.4,0-0.6,0.3-0.6,0.6c0,0.4,0.3,0.6,0.6,0.6h1.4c0.4,0,0.6-0.3,0.6-0.6C34.5,25.9,34.2,25.6,33.8,25.6
		L33.8,25.6z M33.8,25.6"/>
	<path d="M22.8,29.6h9.7c0.4,0,0.6-0.3,0.6-0.6c0-0.4-0.3-0.6-0.6-0.6h-9.7c-0.4,0-0.6,0.3-0.6,0.6C22.1,29.3,22.4,29.6,22.8,29.6
		L22.8,29.6z M22.8,29.6"/>
	<path d="M29.7,31.1h-6.9c-0.4,0-0.6,0.3-0.6,0.6c0,0.4,0.3,0.6,0.6,0.6h6.9c0.4,0,0.6-0.3,0.6-0.6C30.3,31.4,30,31.1,29.7,31.1
		L29.7,31.1z M29.7,31.1"/>
	<path d="M33.8,31.1h-1.4c-0.4,0-0.6,0.3-0.6,0.6c0,0.4,0.3,0.6,0.6,0.6h1.4c0.4,0,0.6-0.3,0.6-0.6C34.5,31.4,34.2,31.1,33.8,31.1
		L33.8,31.1z M33.8,31.1"/>
</g>
</svg>
