<?xml version="1.0" encoding="utf-8"?>
<!-- Generator: Adobe Illustrator 22.0.1, SVG Export Plug-In . SVG Version: 6.00 Build 0)  -->
<svg version="1.1" id="Camada_1" xmlns="http://www.w3.org/2000/svg" xmlns:xlink="http://www.w3.org/1999/xlink" x="0px" y="0px"
	 width="40px" height="40px" viewBox="0 0 40 40" style="enable-background:new 0 0 40 40;" xml:space="preserve">
<style type="text/css">
	.st0{fill:#FFFFFF;}
</style>
<g>
	<path class="st0" d="M39.2,0.7c-1-1-2.6-1-3.6,0l-5.9,5.9H9.2v1.7H28l-5.9,5.9c-0.1,0.1-0.1,0.2-0.2,0.3h0l-1.8,4.3
		c0,0.1-0.1,0.2-0.1,0.3c0,0.5,0.4,0.8,0.8,0.8h5c1.4,0,2.5,1.1,2.5,2.5v0.1c-1,0.3-1.7,1.3-1.7,2.4c0,0.2,0,0.4,0.1,0.6l-13.3,5.9
		c-0.5-0.4-1.1-0.7-1.8-0.7c-1.4,0-2.5,1.1-2.5,2.5c0,1.4,1.1,2.5,2.5,2.5c1.4,0,2.5-1.1,2.5-2.5c0-0.1,0-0.2,0-0.3l13.6-6
		c0.4,0.3,0.9,0.5,1.5,0.5c1.4,0,2.5-1.1,2.5-2.5c0-1.1-0.7-2-1.7-2.4v-0.1c0-2.3-1.9-4.2-4.2-4.2h-0.9l0.6-0.2l0,0
		c0.1,0,0.2-0.1,0.3-0.2l9.5-9.5c0.3,0.1,0.6,0.4,0.6,0.8v28.3c0,0.5-0.4,0.8-0.8,0.8H4.2c-0.7,0-1.4-0.3-1.9-0.8
		c-0.4-0.5-0.7-1.1-0.6-1.7v0c0-0.1,0-0.1,0-0.2c0.2-1.3,1.3-2.3,2.6-2.3h2.4c0.5,0,0.8-0.4,0.8-0.8V4.1c0-0.5-0.4-0.8-0.8-0.8H4.2
		C1.9,3.3,0,5.2,0,7.5v28.3C0,38.1,1.9,40,4.2,40H35c1.4,0,2.5-1.1,2.5-2.5V9.1c0-0.8-0.4-1.6-1-2l2.8-2.8
		C40.3,3.4,40.3,1.7,39.2,0.7L39.2,0.7z M11.7,34.1c-0.5,0-0.8-0.4-0.8-0.8c0-0.5,0.4-0.8,0.8-0.8c0.5,0,0.8,0.4,0.8,0.8
		C12.5,33.8,12.1,34.1,11.7,34.1L11.7,34.1z M29.2,25.8c-0.5,0-0.8-0.4-0.8-0.8c0-0.5,0.4-0.8,0.8-0.8c0.5,0,0.8,0.4,0.8,0.8
		C30,25.4,29.6,25.8,29.2,25.8L29.2,25.8z M1.7,7.5C1.7,6.1,2.8,5,4.2,5h1.7v26.7H4.3c-1,0-1.9,0.3-2.6,0.9V7.5z M23,16.3l0.7,0.7
		l-1.3,0.5L23,16.3z M25.1,16.1l-1.3-1.3L34.4,4.3l1.3,1.3L25.1,16.1z M38.1,3.2l-1.3,1.3l-1.3-1.3l1.3-1.3c0.4-0.3,0.9-0.3,1.3,0
		l0,0C38.4,2.3,38.4,2.8,38.1,3.2L38.1,3.2z M38.1,3.2"/>
	<path class="st0" d="M14.2,15c0-1.4-1.1-2.5-2.5-2.5c-1.4,0-2.5,1.1-2.5,2.5c0,1.1,0.7,2,1.7,2.4v0.1c0,1.4,1.1,2.5,2.5,2.5h5v-1.7
		h-5c-0.5,0-0.8-0.4-0.8-0.8v-0.1C13.5,17,14.2,16.1,14.2,15L14.2,15z M11.7,14.1c0.5,0,0.8,0.4,0.8,0.8c0,0.5-0.4,0.8-0.8,0.8
		c-0.5,0-0.8-0.4-0.8-0.8C10.8,14.5,11.2,14.1,11.7,14.1L11.7,14.1z M11.7,14.1"/>
	<path class="st0" d="M28.1,35.6l1.1-1.1l1.1,1.1l1.2-1.2l-1.1-1.1l1.1-1.1l-1.2-1.2l-1.1,1.1l-1.1-1.1l-1.2,1.2l1.1,1.1l-1.1,1.1
		L28.1,35.6z M28.1,35.6"/>
	<path class="st0" d="M12.7,22.7l-1.1,1.1l-1.1-1.1l-1.2,1.2l1.1,1.1l-1.1,1.1l1.2,1.2l1.1-1.1l1.1,1.1l1.2-1.2L12.8,25l1.1-1.1
		L12.7,22.7z M12.7,22.7"/>
</g>
</svg>
