<?xml version="1.0" encoding="utf-8"?>
<!-- Generator: Adobe Illustrator 22.0.1, SVG Export Plug-In . SVG Version: 6.00 Build 0)  -->
<svg version="1.1" id="Camada_1" xmlns="http://www.w3.org/2000/svg" xmlns:xlink="http://www.w3.org/1999/xlink" x="0px" y="0px"
	 width="40px" height="40px" viewBox="0 0 40 40" style="enable-background:new 0 0 40 40;" xml:space="preserve">
<style type="text/css">
	.st0{fill:#1D1D1B;}
</style>
<g>
	<path class="st0" d="M28.4,3.3V0L10,3.3V40h20V3.3H28.4z M26.6,2v1.3h-7.4L26.6,2z M28.4,38.3H11.6V5h16.6L28.4,38.3L28.4,38.3z"/>
	<path class="st0" d="M21.6,12.8l-2.9,5.1l-1.5-2.6l-3.8,6.3h13.4L21.6,12.8z M17.5,20h-1.2l0.9-1.5l0.6,1L17.5,20z M19.4,20
		l2.2-3.9l2.2,3.9H19.4z"/>
	<path class="st0" d="M22.5,30h-5c-0.5,0-0.9,0.4-0.9,0.9c0,0.5,0.4,0.9,0.9,0.9h5c0.5,0,0.9-0.4,0.9-0.9S23,30,22.5,30L22.5,30z"/>
	<path class="st0" d="M25.9,26.6H14.1c-0.4,0-0.8,0.4-0.8,0.9c0,0.5,0.3,0.9,0.8,0.9h11.6c0.5,0,0.9-0.4,0.9-0.9
		C26.6,27,26.3,26.6,25.9,26.6L25.9,26.6z"/>
</g>
</svg>
