<?xml version="1.0" encoding="utf-8"?>
<!-- Generator: Adobe Illustrator 22.0.1, SVG Export Plug-In . SVG Version: 6.00 Build 0)  -->
<svg version="1.1" id="Camada_1" xmlns="http://www.w3.org/2000/svg" xmlns:xlink="http://www.w3.org/1999/xlink" x="0px" y="0px"
	 width="40px" height="40px" viewBox="0 0 40 40" style="enable-background:new 0 0 40 40;" xml:space="preserve">
<style type="text/css">
	.st0{fill:#FFFFFF;}
</style>
<g>
	<path class="st0" d="M0.2,14.3l17.6,21.8l-8-21.8C9.8,14.3,0.2,14.3,0.2,14.3z"/>
	<path class="st0" d="M11.4,14.3l8.5,23.2l8.7-23.2C28.6,14.3,11.4,14.3,11.4,14.3z"/>
	<path class="st0" d="M21.8,36.6l18-22.4h-9.7L21.8,36.6z"/>
	<path class="st0" d="M32.9,2.5H21.5l7.8,9.6L32.9,2.5z"/>
	<path class="st0" d="M28,12.8l-8-9.9l-8,9.9H28z"/>
	<path class="st0" d="M18.5,2.5H7.1l3.5,9.7L18.5,2.5z"/>
	<path class="st0" d="M5.9,3.4L0,12.8h9.3L5.9,3.4z"/>
	<path class="st0" d="M40,12.8l-5.9-9.4l-3.5,9.4H40z"/>
</g>
</svg>
