<?xml version="1.0" encoding="utf-8"?>
<!-- Generator: Adobe Illustrator 22.0.1, SVG Export Plug-In . SVG Version: 6.00 Build 0)  -->
<svg version="1.1" id="Camada_1" xmlns="http://www.w3.org/2000/svg" xmlns:xlink="http://www.w3.org/1999/xlink" x="0px" y="0px"
	 width="40px" height="40px" viewBox="0 0 40 40" style="enable-background:new 0 0 40 40;" xml:space="preserve">
<style type="text/css">
	.st0{fill:#1D1D1B;}
</style>
<g>
	<path class="st0" d="M40,20C40,9,31,0,20,0S0,9,0,20c0,5.8,2.5,11.1,6.5,14.7l0,0l0.6,0.5c0,0,0.1,0.1,0.1,0.1
		C7.6,35.7,8,36,8.3,36.2c0.1,0.1,0.2,0.2,0.4,0.3c0.4,0.3,0.8,0.5,1.2,0.8c0.1,0.1,0.2,0.1,0.3,0.2c0.4,0.3,0.9,0.5,1.4,0.7
		c0,0,0.1,0,0.1,0c1.5,0.7,3.1,1.2,4.8,1.5c0,0,0.1,0,0.1,0c0.5,0.1,1.1,0.2,1.6,0.2c0.1,0,0.1,0,0.2,0c0.5,0,1.1,0.1,1.6,0.1
		c0.5,0,1.1,0,1.6-0.1c0.1,0,0.1,0,0.2,0c0.5,0,1.1-0.1,1.6-0.2c0,0,0.1,0,0.1,0c1.7-0.3,3.3-0.8,4.8-1.5c0.1,0,0.1,0,0.2-0.1
		c0.5-0.2,0.9-0.4,1.3-0.7c0.1-0.1,0.2-0.1,0.3-0.2c0.4-0.2,0.8-0.5,1.2-0.7c0.1-0.1,0.3-0.2,0.4-0.3c0.3-0.2,0.6-0.5,0.9-0.7
		c0.1-0.1,0.1-0.1,0.2-0.2l0.7-0.6l0,0C37.5,31.1,40,25.9,40,20L40,20z M1.5,20C1.5,9.8,9.8,1.5,20,1.5S38.5,9.8,38.5,20
		c0,5.5-2.4,10.5-6.2,13.9c-0.2-0.1-0.4-0.3-0.6-0.4l-6.2-3.1c-0.5-0.3-0.9-0.8-0.9-1.4v-2.2c0.1-0.2,0.3-0.4,0.4-0.6
		c0.8-1.1,1.4-2.4,1.9-3.7c0.9-0.4,1.5-1.4,1.5-2.4v-2.6c0-0.6-0.2-1.2-0.6-1.7v-3.4c0-0.4,0.2-2.5-1.4-4.3
		c-1.3-1.5-3.5-2.3-6.4-2.3c-2.9,0-5.1,0.8-6.4,2.3c-1.5,1.8-1.4,3.9-1.4,4.3v3.4c-0.4,0.5-0.6,1.1-0.6,1.7v2.6c0,0.8,0.4,1.5,1,2.1
		c0.6,2.3,1.8,4.1,2.3,4.6v2.1c0,0.6-0.3,1.1-0.8,1.4l-5.8,3.1c-0.2,0.1-0.4,0.2-0.5,0.3C3.8,30.4,1.5,25.5,1.5,20L1.5,20z M1.5,20"
		/>
</g>
</svg>
