<?xml version="1.0" encoding="utf-8"?>
<!-- Generator: Adobe Illustrator 22.0.1, SVG Export Plug-In . SVG Version: 6.00 Build 0)  -->
<svg version="1.1" id="Camada_1" xmlns="http://www.w3.org/2000/svg" xmlns:xlink="http://www.w3.org/1999/xlink" x="0px" y="0px"
	 width="40px" height="40px" viewBox="0 0 40 40" style="enable-background:new 0 0 40 40;" xml:space="preserve">
<style type="text/css">
	.st0{fill:#FFFFFF;}
</style>
<g>
	<path class="st0" d="M26.1,27.9c0-0.7-0.3-1.4-0.8-1.9c-0.3-0.3-0.8-0.6-1.2-0.7l1.4-1.4c0.5-0.5,0.8-1.2,0.8-1.9
		c0-0.7-0.3-1.4-0.8-1.9s-1.2-0.8-1.9-0.8c-0.7,0-1.4,0.3-1.9,0.8l-1.2,1.2c-0.1-0.4-0.3-0.9-0.7-1.2c-0.5-0.5-1.2-0.8-1.9-0.8
		c-0.7,0-1.4,0.3-1.9,0.8l-1.7,1.7c-0.1-0.5-0.3-0.9-0.7-1.2c-0.5-0.5-1.2-0.8-1.9-0.8s-1.4,0.3-1.9,0.8l-4.7,4.7H0.7
		C0.3,25.3,0,25.6,0,26s0.3,0.7,0.7,0.7h3.5c-0.4,1-0.2,2.1,0.6,2.9s2.1,1,3.1,0.5c0.1,0.5,0.3,1,0.7,1.4c0.8,0.8,2,1,3,0.5
		c0.1,0.5,0.3,1,0.7,1.4c0.8,0.8,2,1,3,0.5c0.1,0.5,0.3,1,0.7,1.4c0.5,0.5,1.2,0.8,1.9,0.8s1.4-0.3,1.9-0.8l5.5-5.5
		C25.8,29.2,26.1,28.6,26.1,27.9L26.1,27.9z M5.7,28.6c-0.3-0.3-0.4-0.6-0.4-0.9c0-0.4,0.1-0.7,0.4-0.9L6,26.5l4.9-4.9
		c0.3-0.3,0.6-0.4,0.9-0.4c0.4,0,0.7,0.1,0.9,0.4c0.5,0.5,0.5,1.4,0,1.9l-5.2,5.2C7.1,29.1,6.2,29.1,5.7,28.6L5.7,28.6z M9.5,30.5
		c-0.3-0.3-0.4-0.6-0.4-0.9c0-0.4,0.1-0.7,0.4-0.9l7.5-7.5c0.3-0.3,0.6-0.4,0.9-0.4c0.4,0,0.7,0.1,0.9,0.4c0.5,0.5,0.5,1.4,0,1.9
		l-6.6,6.6l-0.9,0.9C10.9,31,10,31,9.5,30.5L9.5,30.5z M13.3,32.4c-0.3-0.3-0.4-0.6-0.4-0.9c0-0.4,0.1-0.7,0.4-0.9l3.7-3.7l5.8-5.8
		c0.3-0.3,0.6-0.4,0.9-0.4c0.4,0,0.7,0.1,0.9,0.4c0.5,0.5,0.5,1.4,0,1.9l-3,3l0,0l-2.7,2.7l-3.7,3.7C14.6,32.9,13.8,32.9,13.3,32.4
		L13.3,32.4z M18,34.6c-0.4,0-0.7-0.1-0.9-0.4c-0.3-0.3-0.4-0.6-0.4-0.9c0-0.4,0.1-0.7,0.4-0.9l0.4-0.4l5.1-5.1
		c0.5-0.5,1.4-0.5,1.9,0s0.5,1.4,0,1.9L19,34.3C18.7,34.5,18.3,34.6,18,34.6L18,34.6z"/>
	<path class="st0" d="M16.7,6.7c0.4,0,0.7-0.3,0.7-0.7s-0.3-0.7-0.7-0.7c-4.8,0-7.7,2-9.4,3.2C6.8,8.9,6.2,9.3,6,9.3H0.7
		C0.3,9.3,0,9.6,0,10s0.3,0.7,0.7,0.7H6c0.6,0,1.2-0.4,2.1-1C9.8,8.5,12.3,6.7,16.7,6.7L16.7,6.7z"/>
	<path class="st0" d="M37.3,26c0,0.4,0.3,0.7,0.7,0.7h1.3c0.4,0,0.7-0.3,0.7-0.7c0-0.4-0.3-0.7-0.7-0.7H38
		C37.6,25.3,37.3,25.6,37.3,26L37.3,26z"/>
	<path class="st0" d="M17.4,8.3c-1,1.6-3.9,6.5-4,6.7c-0.2,0.4-0.2,0.9,0.1,1.4c0.6,1,2.3,1.6,3.2,1.6c1.3,0,2.1-0.9,2.9-1.9
		c0.3-0.3,0.6-0.7,0.9-1l3.3-3.3c0.2-0.2,0.4-0.4,0.5-0.5c0,0,0.2,0,0.3,0c0.4,0.2,1.8,1.4,2.9,2.4l6.7,7.4c0.2,0.2,0.5,0.6,0.5,0.9
		v6c0,0.7-0.6,1.3-1.3,1.3S32,28.7,32,28v-4.7c0-0.9-0.8-1.7-0.9-1.8l-4.7-4.7c-0.3-0.3-0.7-0.3-0.9,0c-0.3,0.3-0.3,0.7,0,0.9
		l4.7,4.7c0.2,0.2,0.5,0.6,0.5,0.9V30c0,0.7-0.6,1.3-1.3,1.3c-0.7,0-1.3-0.6-1.3-1.3v-5.3c0-0.4-0.3-0.7-0.7-0.7
		c-0.4,0-0.7,0.3-0.7,0.7V32c0,0.7-0.6,1.3-1.3,1.3c-0.3,0-0.6-0.1-0.9-0.3c-0.3-0.2-0.7-0.2-0.9,0.1c-0.2,0.3-0.2,0.7,0.1,0.9
		c0.5,0.4,1.1,0.7,1.8,0.7c1.4,0,2.5-1,2.6-2.4c0.4,0.2,0.9,0.4,1.4,0.4c1.4,0,2.5-1,2.6-2.4c0.4,0.2,0.9,0.4,1.4,0.4
		c1.5,0,2.7-1.2,2.7-2.7v-6c0-0.9-0.8-1.7-0.8-1.8l-6.7-7.4c-3.1-2.8-3.8-2.8-4-2.8c-0.9,0-1.1,0.1-1.8,0.9l-3.3,3.3
		c-0.4,0.4-0.7,0.7-1,1.1c-0.8,0.9-1.2,1.4-1.9,1.4c-0.8,0-2.1-0.7-2.1-1c0-0.1,3-5.1,4-6.6c1.1-1.7,3-3.7,6.8-3.7
		c2.9,0,6.7,2.2,9.3,3.7c1.8,1.1,2.7,1.6,3.4,1.6h1.3c0.3-0.1,0.6-0.4,0.6-0.7c0-0.4-0.3-0.7-0.7-0.7H38c-0.3,0-1.6-0.8-2.7-1.4
		C32.5,6.3,28.6,4,25.3,4C20.8,4,18.7,6.5,17.4,8.3L17.4,8.3z"/>
</g>
</svg>
