<?xml version="1.0" encoding="utf-8"?>
<!-- Generator: Adobe Illustrator 22.0.1, SVG Export Plug-In . SVG Version: 6.00 Build 0)  -->
<svg version="1.1" id="Camada_1" xmlns="http://www.w3.org/2000/svg" xmlns:xlink="http://www.w3.org/1999/xlink" x="0px" y="0px"
	 width="40px" height="40px" viewBox="0 0 40 40" style="enable-background:new 0 0 40 40;" xml:space="preserve">
<style type="text/css">
	.st0{fill:#1D1D1B;}
</style>
<g>
	<g>
		<path class="st0" d="M3.5,17.7h15.2v19.8h-3.8V40h10v-2.5l-3.7,0l0-19.8h15.2c2,0,3.6-1.6,3.6-3.6V3.6c0-2-1.6-3.6-3.6-3.6H3.5
			c-2,0-3.6,1.6-3.6,3.6v10.5C-0.1,16.1,1.5,17.7,3.5,17.7L3.5,17.7z M2.4,3.6c0-0.6,0.5-1.1,1.1-1.1h32.8c0.6,0,1.1,0.5,1.1,1.1
			v10.5c0,0.6-0.5,1.1-1.1,1.1H3.5c-0.6,0-1.1-0.5-1.1-1.1V3.6z"/>
	</g>
	<g>
		<path class="st0" d="M6.4,11.3c-0.3,0-0.6-0.1-0.9-0.2c-0.2-0.1-0.4-0.2-0.6-0.4S4.6,10.3,4.5,10C4.3,9.7,4.3,9.4,4.3,9.2
			c0-0.3,0.1-0.6,0.2-0.8c0.1-0.3,0.2-0.6,0.4-0.8c0.2-0.2,0.4-0.4,0.7-0.5C5.8,7,6.1,7,6.4,7S7,7,7.3,7.2c0.2,0.1,0.4,0.3,0.6,0.5
			s0.3,0.4,0.4,0.7c0.1,0.3,0.2,0.5,0.2,0.8S8.4,9.8,8.3,10c-0.1,0.3-0.3,0.5-0.4,0.7S7.5,11,7.2,11.2C7,11.3,6.7,11.3,6.4,11.3z
			 M5.1,9.2c0,0.2,0,0.4,0.1,0.5c0.1,0.2,0.1,0.3,0.2,0.5s0.2,0.2,0.4,0.3s0.3,0.1,0.5,0.1s0.4,0,0.5-0.1c0.2-0.1,0.3-0.2,0.4-0.3
			C7.4,10,7.5,9.9,7.6,9.7s0.1-0.3,0.1-0.5s0-0.4-0.1-0.5C7.5,8.4,7.4,8.3,7.3,8.1C7.2,8,7.1,7.9,6.9,7.8c-0.1,0-0.3-0.1-0.5-0.1
			S6,7.7,5.9,7.8C5.7,7.9,5.6,8,5.5,8.2S5.3,8.5,5.2,8.6S5.1,9,5.1,9.2z"/>
		<path class="st0" d="M11,10.6c0.2,0,0.4,0,0.5-0.1s0.2-0.2,0.3-0.3c0.1-0.2,0.1-0.3,0.2-0.5c0-0.2,0.1-0.3,0.1-0.5V7h0.8v2.2
			c0,0.3,0,0.6-0.1,0.8c-0.1,0.3-0.2,0.5-0.3,0.7s-0.3,0.3-0.6,0.5c-0.2,0.1-0.5,0.2-0.9,0.2c-0.3,0-0.6-0.1-0.9-0.2
			c-0.2-0.2-0.4-0.3-0.6-0.5S9.2,10.3,9.2,10C9.1,9.7,9.1,9.5,9.1,9.2V7h0.8v2.2c0,0.2,0,0.4,0.1,0.5c0,0.2,0.1,0.3,0.2,0.4
			c0.1,0.1,0.2,0.2,0.3,0.3C10.6,10.6,10.8,10.6,11,10.6z"/>
		<path class="st0" d="M16.9,7.7h-1.4v3.6h-0.8V7.7h-1.4V7h3.6V7.7z"/>
		<path class="st0" d="M17.5,11.3V7h1.6c0.4,0,0.7,0.1,0.9,0.2s0.5,0.3,0.7,0.5s0.3,0.4,0.4,0.7s0.1,0.5,0.1,0.8s-0.1,0.6-0.1,0.9
			c-0.1,0.3-0.2,0.5-0.4,0.7c-0.2,0.2-0.4,0.3-0.7,0.4s-0.6,0.2-0.9,0.2L17.5,11.3L17.5,11.3z M20.3,9.1c0-0.2,0-0.4-0.1-0.6
			S20.1,8.2,20,8c-0.1,0-0.2-0.1-0.4-0.2s-0.3-0.1-0.5-0.1h-0.7v2.8h0.7c0.2,0,0.4,0,0.6-0.1s0.3-0.2,0.4-0.3s0.2-0.3,0.2-0.5
			C20.3,9.5,20.3,9.4,20.3,9.1z"/>
		<path class="st0" d="M23.7,11.3c-0.3,0-0.6-0.1-0.9-0.2c-0.3-0.1-0.5-0.3-0.7-0.5s-0.3-0.4-0.4-0.7s-0.2-0.5-0.2-0.8
			s0.1-0.6,0.2-0.8s0.3-0.5,0.4-0.7c0.2-0.2,0.4-0.4,0.7-0.5C23.1,7,23.4,7,23.7,7s0.6,0.1,0.9,0.2s0.5,0.3,0.7,0.5s0.3,0.4,0.4,0.7
			s0.2,0.5,0.2,0.8s-0.1,0.6-0.2,0.8c-0.1,0.3-0.3,0.5-0.4,0.7s-0.4,0.4-0.7,0.5C24.3,11.3,24,11.3,23.7,11.3z M22.4,9.2
			c0,0.2,0,0.4,0.1,0.5s0.1,0.3,0.2,0.5s0.2,0.2,0.4,0.3s0.3,0.1,0.5,0.1s0.4,0,0.5-0.1c0.2-0.1,0.3-0.2,0.4-0.3s0.2-0.3,0.2-0.5
			s0.2-0.4,0.2-0.5c0-0.2,0-0.4,0-0.6s-0.1-0.3-0.2-0.5c-0.1-0.1-0.2-0.2-0.4-0.3s-0.4-0.1-0.6-0.1s-0.4,0-0.5,0.1S22.9,8,22.7,8.2
			s-0.2,0.3-0.2,0.5S22.4,9,22.4,9.2z"/>
		<path class="st0" d="M28.3,11.3c-0.3,0-0.6-0.1-0.9-0.2c-0.3-0.1-0.5-0.3-0.7-0.5s-0.3-0.4-0.4-0.7s-0.2-0.5-0.2-0.8
			s0.1-0.6,0.2-0.8s0.3-0.5,0.4-0.7c0.2-0.2,0.4-0.4,0.7-0.5S28,7,28.3,7c0.3,0,0.6,0,0.9,0.2c0.3,0.1,0.5,0.3,0.7,0.5
			s0.3,0.4,0.4,0.7s0.2,0.5,0.2,0.8s-0.1,0.6-0.2,0.8c-0.1,0.3-0.3,0.5-0.4,0.7c-0.2,0.2-0.4,0.4-0.7,0.5
			C28.9,11.3,28.6,11.3,28.3,11.3z M27,9.2c0,0.2,0,0.4,0.1,0.5c0.1,0.2,0.1,0.3,0.2,0.5s0.2,0.2,0.4,0.3s0.3,0.1,0.5,0.1
			s0.4,0,0.5-0.1c0.2-0.1,0.3-0.2,0.4-0.3s0.2-0.3,0.2-0.5s0.1-0.3,0.1-0.5s0-0.4-0.1-0.5c-0.1-0.2-0.1-0.3-0.2-0.5
			C29,8.1,28.9,8,28.8,7.9s-0.3-0.1-0.5-0.1s-0.4,0-0.5,0.1c-0.2,0.1-0.3,0.2-0.4,0.3s-0.2,0.3-0.2,0.5S27,9,27,9.2z"/>
		<path class="st0" d="M31,11.3V7h1.9c0.2,0,0.4,0,0.6,0.1c0.2,0.1,0.3,0.2,0.4,0.3c0.1,0.1,0.2,0.3,0.3,0.5
			c0.1,0.2,0.1,0.3,0.1,0.5c0,0.3-0.1,0.5-0.2,0.8c-0.1,0.2-0.3,0.4-0.6,0.5l1,1.6h-0.9l-0.9-1.4h-0.8v1.4H31z M31.9,9.1h1
			c0.1,0,0.1,0,0.2-0.1c0.1,0,0.1-0.1,0.2-0.1c0.1,0,0.1-0.1,0.1-0.2c0-0.1,0-0.2,0-0.3s0-0.2,0-0.3c0-0.1-0.1-0.2-0.1-0.2
			s-0.1-0.1-0.2-0.1c-0.1,0-0.1-0.1-0.2-0.1h-1V9.1z"/>
	</g>
</g>
</svg>
