<?xml version="1.0" encoding="utf-8"?>
<!-- Generator: Adobe Illustrator 22.0.1, SVG Export Plug-In . SVG Version: 6.00 Build 0)  -->
<svg version="1.1" id="Camada_1" xmlns="http://www.w3.org/2000/svg" xmlns:xlink="http://www.w3.org/1999/xlink" x="0px" y="0px"
	 width="40px" height="40px" viewBox="0 0 40 40" style="enable-background:new 0 0 40 40;" xml:space="preserve">
<style type="text/css">
	.st0{fill:#FFFFFF;}
</style>
<g>
	<path class="st0" d="M38.2,38.5h-1.7V13.6c0-1.1-0.9-2.1-2.1-2.1h-3.8c-1.1,0-2.1,0.9-2.1,2.1v24.9h-4.4V24.8
		c0-1.1-0.9-2.1-2.1-2.1h-3.8c-1.1,0-2.1,0.9-2.1,2.1v13.6h-4.4v-7c0-1.1-0.9-2.1-2.1-2.1h-4c-1.1,0-2.1,0.9-2.1,2.1v7H1.8
		c-0.4,0-0.8,0.4-0.8,0.8c0,0.5,0.4,0.8,0.8,0.8h36.3c0.5,0,0.8-0.4,0.8-0.8C39,38.9,38.6,38.5,38.2,38.5L38.2,38.5z M10.2,38.5H5.3
		v-7c0-0.3,0.3-0.6,0.6-0.6h3.8c0.3,0,0.6,0.3,0.6,0.6V38.5z M22.5,38.5h-4.9V24.8c0-0.3,0.3-0.6,0.6-0.6h3.8c0.3,0,0.6,0.3,0.6,0.6
		C22.5,24.8,22.5,38.5,22.5,38.5z M34.9,38.5H30V13.6c0-0.3,0.3-0.6,0.6-0.6h3.8c0.3,0,0.6,0.3,0.6,0.6
		C34.9,13.6,34.9,38.5,34.9,38.5z"/>
	<path class="st0" d="M36.5,0.9c0-0.2-0.1-0.5-0.2-0.6C36.2,0.1,35.9,0,35.7,0l0,0h-4.7c-0.5,0-0.8,0.4-0.8,0.8s0.4,0.8,0.8,0.8h2.9
		l-7.8,7.8l-2.9-2.9c-0.2-0.2-0.4-0.2-0.6-0.2c-0.2,0-0.4,0.1-0.6,0.2L8,20.5c-0.3,0.3-0.3,0.8,0,1.1c0.2,0.1,0.4,0.2,0.6,0.2
		c0.2,0,0.4-0.1,0.6-0.2L22.6,8.1l2.9,2.9c0.3,0.3,0.8,0.3,1.1,0l8.2-8.2v2.7c0,0.5,0.4,0.8,0.8,0.8c0.5,0,0.8-0.4,0.8-0.8L36.5,0.9
		L36.5,0.9L36.5,0.9z"/>
	<path class="st0" d="M6.7,23.7c0,0.5-0.4,0.8-0.8,0.8c-0.5,0-0.8-0.4-0.8-0.8s0.4-0.8,0.8-0.8C6.4,22.9,6.7,23.3,6.7,23.7L6.7,23.7
		z"/>
</g>
</svg>
