<?xml version="1.0" encoding="utf-8"?>
<!-- Generator: Adobe Illustrator 22.0.1, SVG Export Plug-In . SVG Version: 6.00 Build 0)  -->
<svg version="1.1" id="Camada_1" xmlns="http://www.w3.org/2000/svg" xmlns:xlink="http://www.w3.org/1999/xlink" x="0px" y="0px"
	 width="40px" height="40px" viewBox="0 0 40 40" style="enable-background:new 0 0 40 40;" xml:space="preserve">
<style type="text/css">
	.st0{fill:#1D1D1B;}
</style>
<g>
	<path class="st0" d="M40,20l-3.4-4.5l0.8-5.5l-5.2-2.1L30,2.7l-5.5,0.8L20,0l-4.5,3.4L10,2.7L7.9,7.9L2.7,10l0.8,5.5L0,20l3.4,4.5
		L2.7,30l5.2,2.1l2.1,5.2l5.5-0.8L20,40l4.5-3.4l5.5,0.8l2.1-5.2l5.2-2.1l-0.8-5.5L40,20z M18.4,26.5L11.7,21l1.4-1.8l5,4.1l8.5-9.8
		l1.7,1.5L18.4,26.5z M18.4,26.5"/>
</g>
</svg>
