<?xml version="1.0" encoding="utf-8"?>
<!-- Generator: Adobe Illustrator 22.0.1, SVG Export Plug-In . SVG Version: 6.00 Build 0)  -->
<svg version="1.1" id="Camada_1" xmlns="http://www.w3.org/2000/svg" xmlns:xlink="http://www.w3.org/1999/xlink" x="0px" y="0px"
	 width="142px" height="142px" viewBox="0 0 142 142" style="enable-background:new 0 0 142 142;" xml:space="preserve">
<style type="text/css">
	.st0{fill:#AC284D;}
	.st1{fill:#FFFFFF;}
</style>
<g>
	<polygon class="st0" points="15,26.6 62.8,0 115.4,15 142,62.8 127,115.4 79.2,142 26.6,127 0,79.2 	"/>
	<g>
		<path class="st1" d="M51.4,75.2c-3.2,0-5.9,2.6-5.9,5.9c0,3.2,2.6,5.9,5.9,5.9c3.2,0,5.9-2.6,5.9-5.9
			C57.2,77.9,54.6,75.2,51.4,75.2z M51.4,84.6c-1.9,0-3.5-1.6-3.5-3.5s1.6-3.5,3.5-3.5s3.5,1.6,3.5,3.5S53.3,84.6,51.4,84.6z"/>
		<path class="st1" d="M91.2,75.2c-3.2,0-5.9,2.6-5.9,5.9c0,3.2,2.6,5.9,5.9,5.9c3.2,0,5.9-2.6,5.9-5.9
			C97.1,77.9,94.5,75.2,91.2,75.2z M91.2,84.6c-1.9,0-3.5-1.6-3.5-3.5s1.6-3.5,3.5-3.5s3.5,1.6,3.5,3.5S93.2,84.6,91.2,84.6z"/>
		<path class="st1" d="M106.2,76.6c0.3-0.6-0.2-1.1-0.9-1.1h-0.1v-7c0-0.5-0.3-1-0.8-1.1l-6.6-2.2c-2.5-4.2-5.9-8.2-13.5-9.6l0,0
			c-14-1.9-24.5,1.2-31.3,9.4c-5,0.1-10.2,1.1-13.2,3c-1.6,1-2.5,2.7-2.6,4.6l-0.1,2.9c-0.6,0-1.2,0.5-1.2,1.2v4.7
			c0,0.6,0.5,1.2,1.2,1.2H42c0,0,1.2-0.8,1.2-1.4l0,0c0-4.3,3.7-7.8,8.2-7.8s8.2,3.5,8.2,7.9c-0.1,0.7,0.5,1.1,1.2,1.4h21.1
			c0.7-0.3,1.2-0.8,1.2-1.4l0,0c0-4.3,3.7-7.8,8.2-7.8s8.2,3.5,8.2,7.9c-0.1,0.7,0.5,1.1,1.2,1.4h4.7c0.6-0.3,1.2-0.8,0.9-1.4
			L106.2,76.6L106.2,76.6z M74,63.9c0,0.3-0.3,0.6-0.6,0.6H58.1c-0.5,0-0.8-0.7-0.4-1c4.1-3.7,9.2-5.8,15.6-6.4
			c0.3,0,0.6,0.2,0.6,0.6v6.2H74z M88,63.9c0,0.3-0.3,0.6-0.6,0.6H76.6c-0.3,0-0.6-0.3-0.6-0.6v-6.4c0-0.3,0.3-0.6,0.6-0.6
			c2.4,0,4.9,0.2,7.6,0.5c1.3,0.2,2.4,0.5,3.5,0.9c0.2,0.1,0.4,0.3,0.4,0.6L88,63.9z M93.8,64.5h-3.2c-0.3,0-0.6-0.3-0.6-0.6v-3.2
			c0-0.5,0.6-0.7,0.9-0.5c1.3,0.9,2.3,2,3.3,3.3C94.6,63.9,94.3,64.5,93.8,64.5z"/>
	</g>
</g>
</svg>
