<?xml version="1.0" encoding="utf-8"?>
<!-- Generator: Adobe Illustrator 22.0.1, SVG Export Plug-In . SVG Version: 6.00 Build 0)  -->
<svg version="1.1" id="Camada_1" xmlns="http://www.w3.org/2000/svg" xmlns:xlink="http://www.w3.org/1999/xlink" x="0px" y="0px"
	 width="142px" height="142px" viewBox="0 0 142 142" style="enable-background:new 0 0 142 142;" xml:space="preserve">
<style type="text/css">
	.st0{fill:#AC284D;}
	.st1{fill:#FFFFFF;}
</style>
<g>
	<polygon class="st0" points="15,26.6 62.8,0 115.4,15 142,62.8 127,115.4 79.2,142 26.6,127 0,79.2 	"/>
	<g>
		<path class="st1" d="M36.9,61.1l30.3,37.6L53.4,61.1H36.9z"/>
		<path class="st1" d="M56.1,61.1l14.6,40.1l14.9-40.1H56.1z"/>
		<path class="st1" d="M74,99.7l31.1-38.6H88.4L74,99.7z"/>
		<path class="st1" d="M93.3,40.8H73.7l13.4,16.5L93.3,40.8z"/>
		<path class="st1" d="M84.8,58.6L71,41.6l-13.8,17H84.8z"/>
		<path class="st1" d="M68.3,40.8H48.7l6.1,16.6L68.3,40.8z"/>
		<path class="st1" d="M46.6,42.4L36.5,58.6h16L46.6,42.4z"/>
		<path class="st1" d="M105.5,58.6L95.4,42.4l-6,16.2C89.4,58.6,105.5,58.6,105.5,58.6z"/>
	</g>
</g>
</svg>
