<?xml version="1.0" encoding="utf-8"?>
<!-- Generator: Adobe Illustrator 22.0.1, SVG Export Plug-In . SVG Version: 6.00 Build 0)  -->
<svg version="1.1" id="Camada_1" xmlns="http://www.w3.org/2000/svg" xmlns:xlink="http://www.w3.org/1999/xlink" x="0px" y="0px"
	 width="142px" height="142px" viewBox="0 0 142 142" style="enable-background:new 0 0 142 142;" xml:space="preserve">
<style type="text/css">
	.st0{fill:#AC284D;}
	.st1{fill:#FFFFFF;}
</style>
<g>
	<polygon class="st0" points="15,26.6 62.8,0 115.4,15 142,62.8 127,115.4 79.2,142 26.6,127 0,79.2 	"/>
	<g>
		<path class="st1" d="M71,82.6c3.2,0,5.9-1.1,8.2-3.4c2.3-2.3,3.4-5,3.4-8.2V52.4c0-3.2-1.1-5.9-3.4-8.2s-5-3.4-8.2-3.4
			s-5.9,1.1-8.2,3.4c-2.3,2.3-3.4,5-3.4,8.2V71c0,3.2,1.1,5.9,3.4,8.2C65.1,81.5,67.8,82.6,71,82.6L71,82.6z"/>
		<path class="st1" d="M91.2,64.7c-0.5-0.5-1-0.7-1.6-0.7s-1.2,0.2-1.6,0.7c-0.5,0.5-0.7,1-0.7,1.6V71c0,4.5-1.6,8.3-4.8,11.5
			c-3.2,3.2-7,4.8-11.5,4.8s-8.3-1.6-11.5-4.8c-3.2-3.2-4.8-7-4.8-11.5v-4.6c0-0.6-0.2-1.2-0.7-1.6c-0.5-0.5-1-0.7-1.6-0.7
			s-1.2,0.2-1.6,0.7c-0.5,0.5-0.7,1-0.7,1.6V71c0,5.3,1.8,10,5.3,13.9c3.6,4,8,6.2,13.2,6.8v4.8h-9.3c-0.6,0-1.2,0.2-1.6,0.7
			c-0.5,0.5-0.7,1-0.7,1.6s0.2,1.2,0.7,1.6c0.5,0.5,1,0.7,1.6,0.7h23.2c0.6,0,1.2-0.2,1.6-0.7c0.5-0.5,0.7-1,0.7-1.6
			s-0.2-1.2-0.7-1.6c-0.5-0.5-1-0.7-1.6-0.7h-9.3v-4.8c5.2-0.6,9.7-2.8,13.2-6.8c3.6-4,5.3-8.6,5.3-13.9v-4.6
			C91.9,65.7,91.7,65.2,91.2,64.7L91.2,64.7z"/>
	</g>
</g>
</svg>
