<?xml version="1.0" encoding="utf-8"?>
<!-- Generator: Adobe Illustrator 22.0.1, SVG Export Plug-In . SVG Version: 6.00 Build 0)  -->
<svg version="1.1" id="Camada_1" xmlns="http://www.w3.org/2000/svg" xmlns:xlink="http://www.w3.org/1999/xlink" x="0px" y="0px"
	 width="142px" height="142px" viewBox="0 0 142 142" style="enable-background:new 0 0 142 142;" xml:space="preserve">
<style type="text/css">
	.st0{fill:#AC284D;}
	.st1{fill:#FFFFFF;}
</style>
<g>
	<polygon class="st0" points="15,26.6 62.8,0 115.4,15 142,62.8 127,115.4 79.2,142 26.6,127 0,79.2 	"/>
	<g>
		<path class="st1" d="M104.7,49H37.3c-0.8,0-1.5,0.7-1.5,1.5v41.1c0,0.8,0.7,1.5,1.5,1.5h67.5c0.8,0,1.5-0.7,1.5-1.5V50.5
			C106.2,49.7,105.5,49,104.7,49L104.7,49z M103.3,90.1H38.7V51.9h64.5v38.2H103.3z"/>
		<path class="st1" d="M56.2,56.8l-5.1,9l-2.7-4.5l-6.7,11.2h23.5L56.2,56.8z M48.9,69.5h-2.1l1.5-2.5l1,1.7L48.9,69.5z M52.3,69.5
			l3.9-6.8l3.9,6.8H52.3z"/>
		<path class="st1" d="M98.9,84.2H75.4c-0.8,0-1.5,0.7-1.5,1.5s0.7,1.5,1.5,1.5h23.5c0.8,0,1.5-0.7,1.5-1.5
			C100.3,84.9,99.7,84.2,98.9,84.2L98.9,84.2z"/>
		<path class="st1" d="M98.9,78.3H87.1c-0.8,0-1.5,0.7-1.5,1.5s0.7,1.5,1.5,1.5h11.7c0.8,0,1.5-0.7,1.5-1.5S99.7,78.3,98.9,78.3
			L98.9,78.3z"/>
	</g>
</g>
</svg>
