<?xml version="1.0" encoding="utf-8"?>
<!-- Generator: Adobe Illustrator 22.0.1, SVG Export Plug-In . SVG Version: 6.00 Build 0)  -->
<svg version="1.1" id="Camada_1" xmlns="http://www.w3.org/2000/svg" xmlns:xlink="http://www.w3.org/1999/xlink" x="0px" y="0px"
	 width="142px" height="142px" viewBox="0 0 142 142" style="enable-background:new 0 0 142 142;" xml:space="preserve">
<style type="text/css">
	.st0{fill:#AC284D;}
	.st1{fill:#FFFFFF;}
</style>
<g>
	<polygon class="st0" points="15,26.6 62.8,0 115.4,15 142,62.8 127,115.4 79.2,142 26.6,127 0,79.2 	"/>
	<g>
		<g>
			<path class="st1" d="M79.4,98.4v2.1c0,1.7-1.3,3.1-2.9,3.4l-0.5,1.9c-0.3,1.1-1.2,1.8-2.3,1.8h-5.2c-1.1,0-2.1-0.7-2.3-1.8
				l-0.5-1.9c-1.6-0.3-2.9-1.7-2.9-3.4v-2.1c0-1.1,0.9-2.1,2.1-2.1h12.6C78.4,96.4,79.4,97.3,79.4,98.4L79.4,98.4z M89.1,69.5
				c0,4.9-1.9,9.3-5.1,12.5c-2.4,2.5-3.9,5.6-4.4,9c-0.2,1.4-1.5,2.5-3,2.5H65.4c-1.5,0-2.7-1.1-2.9-2.5c-0.5-3.4-2.1-6.6-4.5-9
				c-3.1-3.2-5-7.5-5-12.3c-0.1-10.1,7.9-18.2,17.9-18.3C80.9,51.4,89.1,59.5,89.1,69.5L89.1,69.5z M73,58.6c0-1.1-0.9-2-2-2
				c-7.2,0-13,5.8-13,13c0,1.1,0.9,2,2,2s2-0.9,2-2c0-5,4-9,9-9C72.1,60.6,73,59.7,73,58.6L73,58.6z M71,45.5c1.1,0,2-0.9,2-2v-7.1
				c0-1.1-0.9-2-2-2s-2,0.9-2,2v7.1C69,44.6,69.9,45.5,71,45.5L71,45.5z M47,69.5c0-1.1-0.9-2-2-2h-7.1c-1.1,0-2,0.9-2,2s0.9,2,2,2
				H45C46.1,71.6,47,70.7,47,69.5L47,69.5z M104.2,67.5H97c-1.1,0-2,0.9-2,2s0.9,2,2,2h7.1c1.1,0,2-0.9,2-2
				C106.2,68.4,105.3,67.5,104.2,67.5L104.2,67.5z M51.2,86.5l-5.1,5.1c-0.8,0.8-0.8,2.1,0,2.9c0.4,0.4,0.9,0.6,1.4,0.6
				s1-0.2,1.4-0.6l5.1-5.1c0.8-0.8,0.8-2.1,0-2.9C53.2,85.7,52,85.7,51.2,86.5L51.2,86.5z M89.4,53.2c0.5,0,1-0.2,1.4-0.6l5.1-5.1
				c0.8-0.8,0.8-2.1,0-2.9c-0.8-0.8-2.1-0.8-2.9,0l-5,5.1c-0.8,0.8-0.8,2.1,0,2.9C88.4,53,88.9,53.2,89.4,53.2L89.4,53.2z
				 M51.2,52.6c0.4,0.4,0.9,0.6,1.4,0.6s1-0.2,1.4-0.6c0.8-0.8,0.8-2.1,0-2.9l-5-5.1c-0.8-0.8-2.1-0.8-2.9,0c-0.8,0.8-0.8,2.1,0,2.9
				L51.2,52.6z M90.8,86.5c-0.8-0.8-2.1-0.8-2.9,0s-0.8,2.1,0,2.9l5.1,5.1c0.4,0.4,0.9,0.6,1.4,0.6s1-0.2,1.4-0.6
				c0.8-0.8,0.8-2.1,0-2.9L90.8,86.5z"/>
		</g>
	</g>
</g>
</svg>
