<?xml version="1.0" encoding="utf-8"?>
<!-- Generator: Adobe Illustrator 22.0.1, SVG Export Plug-In . SVG Version: 6.00 Build 0)  -->
<svg version="1.1" id="Camada_1" xmlns="http://www.w3.org/2000/svg" xmlns:xlink="http://www.w3.org/1999/xlink" x="0px" y="0px"
	 width="142px" height="142px" viewBox="0 0 142 142" style="enable-background:new 0 0 142 142;" xml:space="preserve">
<style type="text/css">
	.st0{fill:#AC284D;}
	.st1{fill:#FFFFFF;}
</style>
<polygon class="st0" points="15,26.6 62.8,0 115.4,15 142,62.8 127,115.4 79.2,142 26.6,127 0,79.2 "/>
<g>
	<path class="st1" d="M41.6,109.3c0,1.3,1.1,2.4,2.4,2.4h59.1c1.3,0,2.4-1.1,2.4-2.4V83H41.6V109.3z"/>
	<polygon class="st1" points="94.7,65.7 82.8,65.7 71.6,78.2 83.6,78.2 	"/>
	<path class="st1" d="M103.1,65.7h-1.9L90,78.2h15.5V68.1C105.5,66.8,104.4,65.7,103.1,65.7z"/>
	<polygon class="st1" points="53.5,78.2 65.2,78.2 76.3,65.7 64.7,65.7 	"/>
	<path class="st1" d="M41.6,78.2h5.5l11.2-12.5h-2.9l6.4-2.9l7.2-22.1l-10.4,4.6l-6.6,20.4h-5.1L52.5,48l-14.6,6.5
		c-1.2,0.5-1.8,2-1.2,3.2l4.9,11L41.6,78.2L41.6,78.2z"/>
	<polygon class="st1" points="78,55.6 85.2,33.5 74.8,38.1 67.6,60.2 	"/>
	<path class="st1" d="M99,46.3c0.6-0.3,1-0.7,1.3-1.3c0.2-0.6,0.2-1.3,0-1.8l-5.1-11.4c-0.5-1.2-2-1.8-3.2-1.2l-0.8,0.4L84,53
		L99,46.3z"/>
</g>
</svg>
