<?xml version="1.0" encoding="utf-8"?>
<!-- Generator: Adobe Illustrator 22.0.1, SVG Export Plug-In . SVG Version: 6.00 Build 0)  -->
<svg version="1.1" id="Camada_1" xmlns="http://www.w3.org/2000/svg" xmlns:xlink="http://www.w3.org/1999/xlink" x="0px" y="0px"
	 width="142px" height="142px" viewBox="0 0 142 142" style="enable-background:new 0 0 142 142;" xml:space="preserve">
<style type="text/css">
	.st0{fill:#AC284D;}
	.st1{fill:#FFFFFF;}
</style>
<g>
	<polygon class="st0" points="15,26.6 62.8,0 115.4,15 142,62.8 127,115.4 79.2,142 26.6,127 0,79.2 	"/>
	<g>
		<path class="st1" d="M104.5,42.5c-1.1-1.1-2.5-1.7-4.1-1.7H41.7c-1.6,0-3,0.6-4.1,1.7c-1.1,1.1-1.7,2.5-1.7,4.1v39.5
			c0,1.6,0.6,3,1.7,4.1c1.1,1.1,2.5,1.7,4.1,1.7h19.9c0,0.9-0.2,1.9-0.6,2.8c-0.4,1-0.8,1.8-1.2,2.5s-0.6,1.3-0.6,1.6
			c0,0.6,0.2,1.2,0.7,1.6c0.5,0.5,1,0.7,1.6,0.7h18.8c0.6,0,1.2-0.2,1.6-0.7c0.5-0.5,0.7-1,0.7-1.6c0-0.3-0.2-0.8-0.6-1.6
			c-0.4-0.7-0.8-1.6-1.2-2.6c-0.4-1-0.6-1.9-0.6-2.8h19.9c1.6,0,3-0.6,4.1-1.7s1.7-2.5,1.7-4.1V46.6C106.2,45,105.6,43.7,104.5,42.5
			L104.5,42.5z M101.5,76.8c0,0.3-0.1,0.6-0.3,0.8c-0.2,0.2-0.5,0.3-0.8,0.3H41.7c-0.3,0-0.6-0.1-0.8-0.3c-0.2-0.2-0.3-0.5-0.3-0.8
			V46.6c0-0.3,0.1-0.6,0.3-0.8s0.5-0.3,0.8-0.3h58.7c0.3,0,0.6,0.1,0.8,0.3c0.2,0.2,0.3,0.5,0.3,0.8
			C101.5,46.6,101.5,76.8,101.5,76.8z"/>
	</g>
</g>
</svg>
